<svg width="20" height="20" viewBox="0 0 20 20" fill="none" xmlns="http://www.w3.org/2000/svg">
<path d="M19.375 15H2.5V3.125C2.5 2.77969 2.22031 2.5 1.875 2.5H0.625C0.279687 2.5 0 2.77969 0 3.125V16.25C0 16.9402 0.559766 17.5 1.25 17.5H19.375C19.7203 17.5 20 17.2203 20 16.875V15.625C20 15.2797 19.7203 15 19.375 15ZM18.125 3.75H13.5133C12.6781 3.75 12.2598 4.75977 12.8504 5.35039L14.116 6.61602L11.25 9.48242L8.38398 6.61641C7.8957 6.12813 7.1043 6.12813 6.61641 6.61641L3.9332 9.29961C3.68906 9.54375 3.68906 9.93945 3.9332 10.1836L4.8168 11.0672C5.06094 11.3113 5.45664 11.3113 5.70078 11.0672L7.5 9.26758L10.366 12.1336C10.8543 12.6219 11.6457 12.6219 12.1336 12.1336L15.8836 8.38359L17.1492 9.64922C17.7398 10.2398 18.7496 9.82148 18.7496 8.98633V4.375C18.75 4.02969 18.4703 3.75 18.125 3.75Z" fill="white"/>
</svg>
