<svg width="20" height="20" viewBox="0 0 20 20" fill="none" xmlns="http://www.w3.org/2000/svg">
<g clip-path="url(#clip0_3_2390)">
<path d="M9.73461 6.25895L3.33288 11.5315V17.2221C3.33288 17.3695 3.39141 17.5108 3.4956 17.615C3.59978 17.7192 3.74109 17.7777 3.88843 17.7777L7.77941 17.7676C7.92627 17.7669 8.06686 17.708 8.17045 17.6039C8.27403 17.4998 8.33218 17.3589 8.33218 17.2121V13.8888C8.33218 13.7415 8.39071 13.6002 8.4949 13.496C8.59909 13.3918 8.7404 13.3333 8.88774 13.3333H11.11C11.2573 13.3333 11.3986 13.3918 11.5028 13.496C11.607 13.6002 11.6655 13.7415 11.6655 13.8888V17.2096C11.6653 17.2827 11.6795 17.3552 11.7073 17.4228C11.7351 17.4904 11.776 17.5518 11.8276 17.6036C11.8792 17.6554 11.9406 17.6964 12.0081 17.7245C12.0756 17.7525 12.148 17.7669 12.2211 17.7669L16.1107 17.7777C16.258 17.7777 16.3993 17.7192 16.5035 17.615C16.6077 17.5108 16.6662 17.3695 16.6662 17.2221V11.5277L10.2659 6.25895C10.1906 6.19829 10.0969 6.16522 10.0002 6.16522C9.90359 6.16522 9.80986 6.19829 9.73461 6.25895V6.25895ZM19.8468 9.84263L16.944 7.44992V2.64054C16.944 2.53004 16.9001 2.42406 16.822 2.34592C16.7438 2.26778 16.6378 2.22388 16.5273 2.22388H14.5829C14.4724 2.22388 14.3664 2.26778 14.2882 2.34592C14.2101 2.42406 14.1662 2.53004 14.1662 2.64054V5.16172L11.0575 2.60409C10.7592 2.35859 10.3849 2.22437 9.9985 2.22437C9.61215 2.22437 9.2378 2.35859 8.93947 2.60409L0.150238 9.84263C0.108046 9.8775 0.0731394 9.92034 0.0475116 9.96871C0.0218838 10.0171 0.00603759 10.07 0.000878353 10.1245C-0.00428089 10.179 0.00134797 10.234 0.0174433 10.2863C0.0335386 10.3386 0.059785 10.3873 0.0946827 10.4294L0.980099 11.5058C1.0149 11.5481 1.05771 11.5832 1.10607 11.6089C1.15443 11.6347 1.2074 11.6506 1.26194 11.6559C1.31648 11.6612 1.37151 11.6556 1.4239 11.6396C1.4763 11.6235 1.52501 11.5973 1.56725 11.5624L9.73461 4.83534C9.80986 4.77468 9.90359 4.74161 10.0002 4.74161C10.0969 4.74161 10.1906 4.77468 10.2659 4.83534L18.4336 11.5624C18.4757 11.5973 18.5244 11.6236 18.5767 11.6397C18.629 11.6558 18.684 11.6614 18.7385 11.6562C18.793 11.6511 18.8459 11.6352 18.8943 11.6096C18.9427 11.584 18.9855 11.5491 19.0204 11.5069L19.9058 10.4305C19.9407 10.3881 19.9668 10.3392 19.9827 10.2866C19.9986 10.2341 20.004 10.1789 19.9985 10.1243C19.993 10.0697 19.9768 10.0166 19.9507 9.96831C19.9247 9.91998 19.8894 9.87726 19.8468 9.84263V9.84263Z" fill="white"/>
</g>
<defs>
<clipPath id="clip0_3_2390">
<rect width="20" height="20" fill="white"/>
</clipPath>
</defs>
</svg>
