<svg width="20" height="20" viewBox="0 0 20 20" fill="none" xmlns="http://www.w3.org/2000/svg">
<g clip-path="url(#clip0_3_2399)">
<path d="M10 1.11108C7.58368 1.11108 5.625 3.06976 5.625 5.48608C5.625 7.43956 8.48438 11 9.57986 12.2923C9.80174 12.5541 10.1986 12.5541 10.4201 12.2923C11.5156 11 14.375 7.43956 14.375 5.48608C14.375 3.06976 12.4163 1.11108 10 1.11108ZM10 6.94442C9.19444 6.94442 8.54167 6.29164 8.54167 5.48608C8.54167 4.68053 9.19444 4.02775 10 4.02775C10.8056 4.02775 11.4583 4.68053 11.4583 5.48608C11.4583 6.29164 10.8056 6.94442 10 6.94442ZM0.698611 8.60935C0.492423 8.69182 0.31567 8.83417 0.191149 9.01804C0.066628 9.20191 4.93822e-05 9.41888 0 9.64095L0 18.3326C0 18.7257 0.396875 18.9944 0.761806 18.8486L5.55556 16.6666V8.57358C5.24861 8.01872 4.99757 7.47845 4.81771 6.96178L0.698611 8.60935ZM10 13.5996C9.51146 13.5996 9.04931 13.385 8.73229 13.0107C8.04965 12.2052 7.32361 11.2878 6.66667 10.3468V16.6663L13.3333 18.8885V10.3472C12.6764 11.2878 11.9507 12.2055 11.2677 13.0111C10.9507 13.385 10.4885 13.5996 10 13.5996ZM19.2382 6.70692L14.4444 8.88886V18.8889L19.3014 16.9462C19.5076 16.8637 19.6844 16.7214 19.8089 16.5375C19.9334 16.3536 20 16.1366 20 15.9146V7.22289C20 6.82983 19.6031 6.56108 19.2382 6.70692Z" fill="white"/>
</g>
<defs>
<clipPath id="clip0_3_2399">
<rect width="20" height="20" fill="white"/>
</clipPath>
</defs>
</svg>
