<svg width="20" height="20" viewBox="0 0 20 20" fill="none" xmlns="http://www.w3.org/2000/svg">
<path d="M3.88889 2.22217C1.73958 2.22217 0 3.96175 0 6.11106V13.8888C0 16.0381 1.73958 17.7777 3.88889 17.7777C6.03819 17.7777 7.77778 16.0381 7.77778 13.8888V6.11106C7.77778 3.96175 6.03819 2.22217 3.88889 2.22217ZM5.55556 9.99995H2.22222V6.11106C2.22222 5.19092 2.96875 4.44439 3.88889 4.44439C4.80903 4.44439 5.55556 5.19092 5.55556 6.11106V9.99995ZM10.4062 8.9687C10.2847 8.84717 10.0799 8.86106 9.97917 8.99647C8.40625 11.1666 8.57639 14.2083 10.5312 16.1631C12.4861 18.118 15.5278 18.2881 17.6979 16.7152C17.8368 16.6145 17.8472 16.4097 17.7257 16.2881L10.4062 8.9687ZM18.3854 8.30897C16.4306 6.35411 13.3889 6.18397 11.2187 7.75689C11.0799 7.85758 11.0694 8.06245 11.191 8.18397L18.5104 15.5034C18.6319 15.6249 18.8368 15.6111 18.9375 15.4756C20.5104 13.302 20.3437 10.2638 18.3854 8.30897V8.30897Z" fill="white"/>
</svg>
