<svg width="26" height="25" viewBox="0 0 26 25" fill="none" xmlns="http://www.w3.org/2000/svg">
<g id="search" clip-path="url(#clip0_3_2977)">
<path id="Vector" d="M25.1582 21.6162L20.29 16.748C20.0703 16.5283 19.7725 16.4062 19.46 16.4062H18.6641C20.0117 14.6826 20.8125 12.5146 20.8125 10.1562C20.8125 4.5459 16.2666 0 10.6562 0C5.0459 0 0.5 4.5459 0.5 10.1562C0.5 15.7666 5.0459 20.3125 10.6562 20.3125C13.0146 20.3125 15.1826 19.5117 16.9062 18.1641V18.96C16.9062 19.2725 17.0283 19.5703 17.248 19.79L22.1162 24.6582C22.5752 25.1172 23.3174 25.1172 23.7715 24.6582L25.1533 23.2764C25.6123 22.8174 25.6123 22.0752 25.1582 21.6162ZM10.6562 16.4062C7.2041 16.4062 4.40625 13.6133 4.40625 10.1562C4.40625 6.7041 7.19922 3.90625 10.6562 3.90625C14.1084 3.90625 16.9062 6.69922 16.9062 10.1562C16.9062 13.6084 14.1133 16.4062 10.6562 16.4062Z" fill="white"/>
</g>
<defs>
<clipPath id="clip0_3_2977">
<rect width="25" height="25" fill="white" transform="translate(0.5)"/>
</clipPath>
</defs>
</svg>
