<svg width="13" height="13" viewBox="0 0 13 13" fill="none" xmlns="http://www.w3.org/2000/svg">
<path d="M3.11988 0.174652C3.83426 0.695277 4.39051 1.4059 4.86551 2.0859L5.14176 2.4884L5.40238 2.87278C5.53275 3.06323 5.58849 3.29499 5.55898 3.5239C5.52947 3.75281 5.41678 3.96286 5.24238 4.11403L4.02301 5.01965C3.9641 5.06219 3.92263 5.12467 3.9063 5.19548C3.88998 5.26629 3.89991 5.34061 3.93426 5.40465C4.21051 5.90653 4.70176 6.65403 5.26426 7.21653C5.82738 7.77903 6.60988 8.30278 7.14676 8.61028C7.21407 8.64806 7.2933 8.65863 7.36817 8.6398C7.44303 8.62096 7.50783 8.57417 7.54926 8.50903L8.34301 7.3009C8.48894 7.10706 8.70421 6.9772 8.94374 6.93852C9.18327 6.89984 9.42848 6.95534 9.62801 7.0934L10.0424 7.38028C10.8168 7.91778 11.6486 8.5284 12.2849 9.34278C12.3858 9.47265 12.45 9.62723 12.4708 9.79038C12.4915 9.95352 12.4681 10.1193 12.403 10.2703C11.8799 11.4909 10.5561 12.5303 9.17926 12.4797L8.99176 12.469L8.84613 12.4565L8.68488 12.4378L8.50926 12.414L8.31863 12.3828C8.28526 12.3768 8.25192 12.3705 8.21863 12.364L8.00863 12.319C7.97191 12.311 7.93524 12.3026 7.89863 12.294L7.66988 12.2353L7.42926 12.1665L7.17801 12.0853C6.02426 11.694 4.55988 10.9253 3.05738 9.42278C1.55551 7.9209 0.786757 6.45653 0.395507 5.30278L0.314257 5.05153L0.245507 4.8109L0.186757 4.58215L0.138007 4.3659C0.123926 4.29817 0.1108 4.23025 0.098632 4.16215L0.067382 3.97153L0.042382 3.7959L0.024257 3.63465L0.0117569 3.48903L0.00175699 3.30153C-0.048868 1.92903 1.00176 0.595903 2.21676 0.0752775C2.36299 0.0121319 2.52313 -0.0119096 2.68146 0.00551225C2.83979 0.0229341 2.99088 0.0812207 3.11988 0.174652ZM8.20426 2.42153L8.27676 2.42965C8.7317 2.5099 9.14956 2.73212 9.47044 3.06445C9.79132 3.39679 9.99876 3.82218 10.063 4.27965C10.0859 4.43789 10.0473 4.59889 9.95513 4.72953C9.86295 4.86017 9.72421 4.95052 9.56745 4.98198C9.41069 5.01344 9.24783 4.98363 9.11238 4.89868C8.97693 4.81373 8.87918 4.6801 8.83926 4.52528L8.82488 4.4534C8.79974 4.27409 8.7232 4.1059 8.60453 3.96914C8.48585 3.83239 8.33012 3.73293 8.15613 3.68278L8.05926 3.6609C7.90232 3.63309 7.76193 3.54636 7.66682 3.41847C7.57171 3.29057 7.52905 3.13117 7.54757 2.97287C7.56609 2.81456 7.64439 2.66931 7.76646 2.56683C7.88853 2.46434 8.04514 2.41237 8.20426 2.42153ZM8.20926 0.521527C9.20382 0.521527 10.1576 0.916616 10.8609 1.61988C11.5642 2.32314 11.9593 3.27697 11.9593 4.27153C11.9591 4.43083 11.8981 4.58405 11.7887 4.69988C11.6794 4.81572 11.5299 4.88542 11.3709 4.89476C11.2119 4.9041 11.0553 4.85236 10.9331 4.75011C10.811 4.64787 10.7324 4.50284 10.7136 4.34465L10.7093 4.27153C10.7095 3.63679 10.4682 3.02575 10.0343 2.56248C9.60035 2.09921 9.0064 1.81843 8.37301 1.77715L8.20926 1.77153C8.0435 1.77153 7.88453 1.70568 7.76732 1.58847C7.65011 1.47126 7.58426 1.31229 7.58426 1.14653C7.58426 0.980767 7.65011 0.821796 7.76732 0.704586C7.88453 0.587375 8.0435 0.521527 8.20926 0.521527Z" fill="white"/>
</svg>
