<?xml version="1.0" encoding="UTF-8"?>
<svg id="_레이어_2" data-name="레이어 2" xmlns="http://www.w3.org/2000/svg" viewBox="0 0 74.57 9.45">
  <defs>
    <style>
      .cls-1 {
        fill-rule: evenodd;
      }

      .cls-1, .cls-2 {
        fill: #000001;
      }
    </style>
  </defs>
  <g id="Layer_1" data-name="Layer 1">
    <g>
      <path class="cls-2" d="m0,9.23h1.66v-3.29c0-.59,0-1.31.3-1.73.3-.46.83-.61,1.13-.61,1.4,0,1.4,1.65,1.4,2.22v3.42h1.66v-3.74c0-.54,0-1.7-.64-2.46-.57-.7-1.49-.96-2.08-.96-1.05,0-1.62.57-1.9.84v-.6H0v6.92"/>
      <path class="cls-1" d="m8.26,5.18c.31-1.29,1.35-1.62,1.96-1.62.82,0,1.68.51,1.87,1.62h-3.83m5.42,1.33c.05-.22.1-.51.1-.83,0-1.75-1.38-3.64-3.58-3.64s-3.64,1.8-3.64,3.75,1.6,3.67,3.65,3.67c1.62,0,2.94-1.16,3.34-2.41h-1.75c-.31.57-.86.88-1.6.88-1.18,0-1.83-.97-1.91-1.42h5.38Z"/>
      <polyline class="cls-2" points="15.92 9.23 16.94 9.23 18.25 4.74 18.27 4.74 19.57 9.23 20.59 9.23 23.12 2.3 21.35 2.3 20.08 6.54 20.06 6.54 18.93 2.3 17.61 2.3 16.48 6.54 16.45 6.54 15.19 2.3 13.42 2.3 15.92 9.23"/>
      <path class="cls-1" d="m27.89,5.67c0-1.01.78-2.08,2.06-2.08,1.05,0,2.02.81,2.02,2.16s-.91,2.18-2,2.18c-.97,0-2.08-.72-2.08-2.26m-1.56,3.55h1.52v-.84c.41.46,1,1.06,2.33,1.06,2.53,0,3.44-2.33,3.44-3.72,0-1.83-1.37-3.67-3.48-3.67-.77,0-1.58.29-2.16.86V0h-1.66v9.23Z"/>
      <path class="cls-1" d="m39.8,5.75c0,1.28-.87,2.18-2.02,2.18s-2.06-.96-2.06-2.13c0-1.03.7-2.21,2.06-2.21.99,0,2.02.72,2.02,2.16m1.57-3.45h-1.52v.88h-.03c-.05-.1-.88-1.11-2.29-1.11-1.92,0-3.47,1.54-3.47,3.66,0,2.31,1.58,3.73,3.37,3.73.87,0,1.9-.46,2.42-1.08v.86h1.52V2.3Z"/>
      <rect class="cls-2" x="42.25" width="1.66" height="9.23"/>
      <path class="cls-1" d="m50.15,5.75c0,1.28-.87,2.18-2.02,2.18s-2.06-.96-2.06-2.13c0-1.03.7-2.21,2.06-2.21.98,0,2.02.72,2.02,2.16m1.57-3.45h-1.52v.88h-.02c-.05-.1-.89-1.11-2.3-1.11-1.92,0-3.46,1.54-3.46,3.66,0,2.31,1.58,3.73,3.37,3.73.87,0,1.9-.46,2.42-1.08v.86h1.52V2.3Z"/>
      <path class="cls-2" d="m52.6,9.23h1.66v-3.29c0-.59,0-1.31.3-1.73.3-.46.84-.61,1.13-.61,1.4,0,1.4,1.65,1.4,2.22v3.42h1.66v-3.74c0-.54,0-1.7-.63-2.46-.58-.7-1.48-.96-2.08-.96-1.05,0-1.62.57-1.9.84v-.6h-1.53v6.92"/>
      <path class="cls-2" d="m64.65,6.97c-.44.7-.99.96-1.54.96-1.25,0-2.08-.99-2.08-2.17,0-1.42,1-2.17,2.01-2.17s1.41.66,1.61,1.01h1.87c-.71-2.13-2.61-2.53-3.48-2.53-1.91,0-3.67,1.55-3.67,3.67,0,2.29,1.91,3.72,3.68,3.72,1.62,0,2.9-.94,3.46-2.48h-1.87"/>
      <path class="cls-1" d="m68.47,5.18c.31-1.29,1.35-1.62,1.96-1.62.82,0,1.68.51,1.87,1.62h-3.83m5.43,1.33c.05-.22.1-.51.1-.83,0-1.75-1.38-3.64-3.58-3.64s-3.64,1.8-3.64,3.75,1.59,3.67,3.65,3.67c1.62,0,2.94-1.16,3.34-2.41h-1.75c-.31.57-.86.88-1.6.88-1.19,0-1.83-.97-1.91-1.42h5.38Z"/>
      <path class="cls-1" d="m74.48,8.73c0,.24-.18.42-.4.42s-.41-.17-.41-.42.18-.41.41-.41.4.18.4.41m-.91,0c0,.29.23.5.5.5s.5-.21.5-.5-.23-.5-.5-.5-.5.21-.5.5Zm.4-.21h.12c.1,0,.12.03.12.09,0,.06-.03.09-.14.09h-.1v-.18Zm0,.25h.1l.15.25h.1l-.16-.25c.09,0,.15-.05.15-.16,0-.11-.07-.16-.2-.16h-.22v.57h.09v-.25Z"/>
    </g>
  </g>
</svg>