<?xml version="1.0" encoding="UTF-8"?>
<svg id="_레이어_2" data-name="레이어 2" xmlns="http://www.w3.org/2000/svg" viewBox="0 0 76.02 13.03">
  <defs>
    <style>
      .cls-1 {
        fill-rule: evenodd;
      }

      .cls-1, .cls-2 {
        fill: #ce0e2d;
      }
    </style>
  </defs>
  <g id="Layer_1" data-name="Layer 1">
    <g>
      <path class="cls-1" d="m13.74,4.6l1.26-2.19,4.26-.27.15-.26-3.94-.28L16.39,0h7.31c2.25,0,3.91.8,3.26,3.17-.2.72-1.11,2.52-3.79,3.28.57.07,1.98.7,1.74,2.32-.43,2.89-4.17,4.26-6.25,4.26h-8.63s-.43-1.67-.43-1.67l4.52-.32.15-.26-4.9-.3-.53-1.98,6.98-.41.15-.26-12.53-.79.6-1.04,13.49-.88.15-.26-3.96-.26m5.65.43h1.25c.83-.01,1.7-.39,2.01-1.16.29-.71-.1-1.32-.62-1.32h-1.21s-1.43,2.48-1.43,2.48Zm-1.43,2.49l-1.5,2.6h1.43c.66,0,1.85-.33,2.22-1.27.34-.88-.29-1.33-.72-1.33h-1.43Zm-10.89,4.02l-.87,1.49H0s.6-1.03.6-1.03l6.47-.45ZM7.5,0h4.99s.38,1.42.38,1.42l-5.96-.38L7.5,0Zm5.65,2.53l.54,2.07-8.52-.56.6-1.04,7.37-.46Zm-4.34,5.97l-1.09,1.87-6-.34.6-1.04,6.49-.49Z"/>
      <g>
        <path class="cls-2" d="m28.13,12.37h1.07v-2.11c0-.38,0-.84.19-1.11.19-.3.54-.39.73-.39.9,0,.9,1.06.9,1.43v2.19h1.07v-2.4c0-.34,0-1.09-.41-1.58-.37-.45-.95-.62-1.34-.62-.67,0-1.04.37-1.22.54v-.38h-.99v4.45"/>
        <path class="cls-1" d="m33.44,9.76c.2-.83.87-1.04,1.26-1.04.53,0,1.08.33,1.2,1.04h-2.46m3.48.86c.03-.14.06-.33.06-.54,0-1.12-.89-2.34-2.3-2.34s-2.34,1.15-2.34,2.41,1.03,2.35,2.35,2.35c1.04,0,1.89-.75,2.15-1.54h-1.12c-.2.37-.55.57-1.02.57-.76,0-1.18-.63-1.23-.91h3.45Z"/>
        <polyline class="cls-2" points="38.35 12.37 39.01 12.37 39.85 9.48 39.87 9.48 40.7 12.37 41.36 12.37 42.98 7.92 41.84 7.92 41.03 10.64 41.01 10.64 40.29 7.92 39.44 7.92 38.71 10.64 38.7 10.64 37.89 7.92 36.75 7.92 38.35 12.37"/>
        <path class="cls-1" d="m46.04,10.09c0-.65.5-1.34,1.32-1.34.67,0,1.3.52,1.3,1.38s-.58,1.4-1.28,1.4c-.62,0-1.34-.46-1.34-1.45m-1,2.28h.98v-.54c.27.3.64.68,1.5.68,1.63,0,2.21-1.5,2.21-2.39,0-1.18-.88-2.36-2.23-2.36-.5,0-1.02.19-1.39.55v-1.88h-1.06v5.93Z"/>
        <path class="cls-1" d="m53.69,10.13c0,.83-.56,1.4-1.3,1.4s-1.32-.62-1.32-1.37c0-.66.45-1.42,1.32-1.42.63,0,1.3.46,1.3,1.38m1.01-2.21h-.98v.56h-.02c-.03-.06-.57-.71-1.47-.71-1.23,0-2.23.99-2.23,2.35,0,1.48,1.02,2.39,2.16,2.39.56,0,1.22-.3,1.55-.7v.55h.98v-4.45Z"/>
        <rect class="cls-2" x="55.27" y="6.44" width="1.06" height="5.93"/>
        <path class="cls-1" d="m60.33,10.13c0,.83-.56,1.4-1.3,1.4s-1.32-.62-1.32-1.37c0-.66.45-1.42,1.32-1.42.63,0,1.3.46,1.3,1.38m1.01-2.21h-.98v.56h-.02c-.03-.06-.57-.71-1.47-.71-1.23,0-2.23.99-2.23,2.35,0,1.48,1.02,2.39,2.16,2.39.56,0,1.22-.3,1.55-.7v.55h.98v-4.45Z"/>
        <path class="cls-2" d="m61.91,12.37h1.07v-2.11c0-.38,0-.84.19-1.11.19-.3.54-.39.73-.39.9,0,.9,1.06.9,1.43v2.19h1.06v-2.4c0-.34,0-1.09-.41-1.58-.37-.45-.95-.62-1.34-.62-.67,0-1.04.37-1.22.54v-.38h-.98v4.45"/>
        <path class="cls-2" d="m69.64,10.92c-.28.45-.63.62-.99.62-.8,0-1.34-.63-1.34-1.39,0-.91.64-1.39,1.29-1.39s.91.42,1.03.65h1.2c-.46-1.37-1.67-1.63-2.23-1.63-1.22,0-2.35.99-2.35,2.36,0,1.47,1.23,2.39,2.36,2.39,1.04,0,1.87-.6,2.23-1.59h-1.2"/>
        <path class="cls-1" d="m72.1,9.76c.2-.83.86-1.04,1.26-1.04.53,0,1.08.33,1.2,1.04h-2.46m3.48.86c.03-.14.06-.33.06-.54,0-1.12-.89-2.34-2.3-2.34s-2.34,1.15-2.34,2.41,1.02,2.35,2.35,2.35c1.04,0,1.89-.75,2.15-1.54h-1.12c-.2.37-.55.57-1.03.57-.76,0-1.18-.63-1.23-.91h3.45Z"/>
        <path class="cls-1" d="m75.96,12.05c0,.16-.11.27-.26.27s-.26-.11-.26-.27.11-.26.26-.26.26.11.26.26m-.58,0c0,.19.15.32.32.32s.32-.13.32-.32-.15-.32-.32-.32-.32.13-.32.32Zm.26-.14h.08c.07,0,.08.02.08.05,0,.04-.02.06-.09.06h-.07v-.12Zm0,.16h.06l.1.16h.06l-.11-.16c.06,0,.1-.04.1-.1,0-.07-.04-.11-.13-.11h-.14v.37h.06v-.16Z"/>
      </g>
    </g>
  </g>
</svg>