<svg width="80" height="31" viewBox="0 0 80 31" fill="none" xmlns="http://www.w3.org/2000/svg">
<rect width="80" height="31" rx="8" fill="#0078FF"/>
<path opacity="0.9" d="M25.16 12.225C25.16 13.115 24.735 13.83 23.885 14.37C23.045 14.9 21.905 15.165 20.465 15.165C19.035 15.165 17.895 14.9 17.045 14.37C16.195 13.83 15.77 13.115 15.77 12.225C15.77 11.355 16.195 10.655 17.045 10.125C17.895 9.585 19.035 9.315 20.465 9.315C21.895 9.315 23.035 9.585 23.885 10.125C24.735 10.655 25.16 11.355 25.16 12.225ZM18.935 22.17H17.405V17.625H14.45V16.395H26.525V17.625H23.525V22.17H21.995V17.625H18.935V22.17ZM22.73 13.425C23.29 13.115 23.57 12.715 23.57 12.225C23.57 11.735 23.285 11.335 22.715 11.025C22.155 10.715 21.405 10.56 20.465 10.56C19.525 10.56 18.77 10.715 18.2 11.025C17.64 11.335 17.36 11.735 17.36 12.225C17.36 12.715 17.64 13.115 18.2 13.425C18.76 13.735 19.515 13.89 20.465 13.89C21.415 13.89 22.17 13.735 22.73 13.425ZM34.7935 15.27L34.8235 14.025H36.8935V11.925H34.8235L34.7935 10.68H36.8935V8.82H38.4235V18.51H36.8935V15.27H34.7935ZM38.6935 21.795H29.6335V17.625H31.1635V20.565H38.6935V21.795ZM34.5235 13.11C34.5235 14.06 34.2035 14.845 33.5635 15.465C32.9335 16.075 32.1085 16.38 31.0885 16.38C30.0685 16.38 29.2385 16.075 28.5985 15.465C27.9685 14.855 27.6535 14.07 27.6535 13.11C27.6535 12.16 27.9685 11.375 28.5985 10.755C29.2385 10.135 30.0685 9.825 31.0885 9.825C32.1085 9.825 32.9335 10.135 33.5635 10.755C34.2035 11.365 34.5235 12.15 34.5235 13.11ZM32.9785 13.11C32.9785 12.51 32.8085 12.03 32.4685 11.67C32.1285 11.3 31.6685 11.115 31.0885 11.115C30.5285 11.115 30.0735 11.305 29.7235 11.685C29.3735 12.055 29.1985 12.53 29.1985 13.11C29.1985 13.67 29.3735 14.14 29.7235 14.52C30.0735 14.89 30.5285 15.075 31.0885 15.075C31.6585 15.075 32.1135 14.89 32.4535 14.52C32.8035 14.14 32.9785 13.67 32.9785 13.11ZM40.872 10.95V9.675H47.892V10.95H45.237V11.115C45.237 12.065 45.532 12.89 46.122 13.59C46.712 14.29 47.427 14.775 48.267 15.045L47.412 16.26C46.832 16.03 46.257 15.665 45.687 15.165C45.127 14.665 44.712 14.12 44.442 13.53C44.252 14.16 43.847 14.775 43.227 15.375C42.617 15.965 41.967 16.39 41.277 16.65L40.347 15.45C41.317 15.09 42.107 14.525 42.717 13.755C43.337 12.985 43.647 12.125 43.647 11.175V10.95H40.872ZM42.417 17.385H51.432V22.2H49.902V18.615H42.417V17.385ZM51.417 16.695H49.887V13.425H47.712V12.15H49.887V8.82H51.417V16.695ZM64.3805 18.51H62.8505V8.82H64.3805V18.51ZM64.6955 21.795H55.5455V17.595H57.0755V20.565H64.6955V21.795ZM59.6705 10.725C60.3105 11.335 60.6305 12.12 60.6305 13.08C60.6305 14.04 60.3105 14.825 59.6705 15.435C59.0405 16.045 58.2205 16.35 57.2105 16.35C56.1905 16.35 55.3605 16.045 54.7205 15.435C54.0805 14.825 53.7605 14.045 53.7605 13.095C53.7605 12.135 54.0805 11.35 54.7205 10.74C55.3605 10.12 56.1905 9.81 57.2105 9.81C58.2205 9.81 59.0405 10.115 59.6705 10.725ZM59.1005 13.08C59.1005 12.49 58.9305 12.01 58.5905 11.64C58.2505 11.27 57.7905 11.085 57.2105 11.085C56.6505 11.085 56.1905 11.275 55.8305 11.655C55.4805 12.025 55.3055 12.5 55.3055 13.08C55.3055 13.64 55.4805 14.11 55.8305 14.49C56.1905 14.86 56.6505 15.045 57.2105 15.045C57.7805 15.045 58.2355 14.86 58.5755 14.49C58.9255 14.11 59.1005 13.64 59.1005 13.08Z" fill="white"/>
</svg>
