<svg width="67" height="31" viewBox="0 0 67 31" fill="none" xmlns="http://www.w3.org/2000/svg">
<rect width="67" height="31" rx="8" fill="#0078FF"/>
<path opacity="0.9" d="M24.98 22.02H15.995V17.265H24.98V22.02ZM26.525 16.035H14.45V14.79H19.94V12.24H21.47V14.79H26.525V16.035ZM23.45 20.79V18.465H17.525V20.79H23.45ZM20.69 9.21H25.22C25.22 11.4 25.06 12.97 24.74 13.92L23.24 13.695C23.37 13.335 23.47 12.835 23.54 12.195C23.62 11.545 23.66 10.96 23.66 10.44H20.69V9.21ZM15.455 9.21H19.655C19.655 10.06 19.58 10.915 19.43 11.775C19.29 12.635 19.12 13.345 18.92 13.905L17.42 13.635C17.58 13.305 17.73 12.82 17.87 12.18C18.01 11.54 18.085 10.96 18.095 10.44H15.455V9.21ZM37.9585 22.02H28.9735V17.265H37.9585V22.02ZM39.5035 16.035H27.4285V14.79H32.9185V12.24H34.4485V14.79H39.5035V16.035ZM36.4285 20.79V18.465H30.5035V20.79H36.4285ZM33.6685 9.21H38.1985C38.1985 11.4 38.0385 12.97 37.7185 13.92L36.2185 13.695C36.3485 13.335 36.4485 12.835 36.5185 12.195C36.5985 11.545 36.6385 10.96 36.6385 10.44H33.6685V9.21ZM28.4335 9.21H32.6335C32.6335 10.06 32.5585 10.915 32.4085 11.775C32.2685 12.635 32.0985 13.345 31.8985 13.905L30.3985 13.635C30.5585 13.305 30.7085 12.82 30.8485 12.18C30.9885 11.54 31.0635 10.96 31.0735 10.44H28.4335V9.21ZM48.042 12.135H40.302V10.935H48.042V12.135ZM47.292 14.85C47.292 15.48 46.997 16.005 46.407 16.425C45.817 16.835 45.077 17.04 44.187 17.04C43.287 17.04 42.537 16.835 41.937 16.425C41.347 16.005 41.052 15.48 41.052 14.85C41.052 14.21 41.347 13.68 41.937 13.26C42.537 12.84 43.287 12.63 44.187 12.63C45.077 12.63 45.817 12.84 46.407 13.26C46.997 13.68 47.292 14.21 47.292 14.85ZM45.792 14.85C45.792 14.52 45.637 14.26 45.327 14.07C45.017 13.88 44.637 13.785 44.187 13.785C43.727 13.785 43.337 13.88 43.017 14.07C42.707 14.26 42.552 14.52 42.552 14.85C42.552 15.16 42.712 15.415 43.032 15.615C43.352 15.805 43.737 15.9 44.187 15.9C44.627 15.9 45.002 15.805 45.312 15.615C45.632 15.415 45.792 15.16 45.792 14.85ZM42.237 10.155V8.94H46.152V10.155H42.237ZM52.752 13.755H50.787V16.995H49.242V8.82H50.787V12.465H52.752V13.755ZM50.787 22.02H42.207V17.67H50.787V22.02ZM49.242 20.805V18.885H43.752V20.805H49.242Z" fill="white"/>
</svg>
