<svg width="67" height="31" viewBox="0 0 67 31" fill="none" xmlns="http://www.w3.org/2000/svg">
<rect width="67" height="31" rx="8" fill="#0078FF"/>
<path opacity="0.9" d="M25.04 15.99H21.23V19.26H26.525V20.49H14.45V19.26H19.7V15.99H16.025V9.84H24.965V11.085H17.57V14.745H25.04V15.99ZM27.8935 11.055V9.795H34.9285V11.055H32.2585V11.46C32.2585 12.39 32.5585 13.23 33.1585 13.98C33.7585 14.72 34.4685 15.215 35.2885 15.465L34.4335 16.695C33.8635 16.475 33.2935 16.105 32.7235 15.585C32.1635 15.055 31.7435 14.485 31.4635 13.875C31.2735 14.515 30.8635 15.145 30.2335 15.765C29.6135 16.385 28.9635 16.82 28.2835 17.07L27.3685 15.87C28.3285 15.52 29.1185 14.945 29.7385 14.145C30.3585 13.345 30.6685 12.465 30.6685 11.505V11.055H27.8935ZM38.4235 18.525H36.8935V13.695H34.7335V12.405H36.8935V8.82H38.4235V18.525ZM38.7235 21.795H29.7085V17.61H31.2385V20.565H38.7235V21.795ZM40.872 10.95V9.675H47.892V10.95H45.237V11.115C45.237 12.065 45.532 12.89 46.122 13.59C46.712 14.29 47.427 14.775 48.267 15.045L47.412 16.26C46.832 16.03 46.257 15.665 45.687 15.165C45.127 14.665 44.712 14.12 44.442 13.53C44.252 14.16 43.847 14.775 43.227 15.375C42.617 15.965 41.967 16.39 41.277 16.65L40.347 15.45C41.317 15.09 42.107 14.525 42.717 13.755C43.337 12.985 43.647 12.125 43.647 11.175V10.95H40.872ZM42.417 17.385H51.432V22.2H49.902V18.615H42.417V17.385ZM51.417 16.695H49.887V13.425H47.712V12.15H49.887V8.82H51.417V16.695Z" fill="white"/>
</svg>
