<svg width="67" height="31" viewBox="0 0 67 31" fill="none" xmlns="http://www.w3.org/2000/svg">
<rect width="67" height="31" rx="8" fill="#0078FF"/>
<path opacity="0.9" d="M21.05 15.105H14.825V9.3H16.37V11.07H19.52V9.27H21.05V15.105ZM19.52 13.875V12.285H16.37V13.875H19.52ZM26.78 12.9H24.83V15.63H23.285V8.82H24.83V11.64H26.78V12.9ZM25.265 22.08H16.235V18.63H23.285V17.58H16.16V16.365H24.83V19.77H17.765V20.865H25.265V22.08ZM27.8935 11.055V9.795H34.9285V11.055H32.2585V11.46C32.2585 12.39 32.5585 13.23 33.1585 13.98C33.7585 14.72 34.4685 15.215 35.2885 15.465L34.4335 16.695C33.8635 16.475 33.2935 16.105 32.7235 15.585C32.1635 15.055 31.7435 14.485 31.4635 13.875C31.2735 14.515 30.8635 15.145 30.2335 15.765C29.6135 16.385 28.9635 16.82 28.2835 17.07L27.3685 15.87C28.3285 15.52 29.1185 14.945 29.7385 14.145C30.3585 13.345 30.6685 12.465 30.6685 11.505V11.055H27.8935ZM38.4235 18.525H36.8935V13.695H34.7335V12.405H36.8935V8.82H38.4235V18.525ZM38.7235 21.795H29.7085V17.61H31.2385V20.565H38.7235V21.795ZM51.417 16.68H49.887V12.9H47.442V11.64H49.887V8.82H51.417V16.68ZM51.537 19.545C51.537 20.345 51.132 20.985 50.322 21.465C49.522 21.945 48.407 22.185 46.977 22.185C45.557 22.185 44.447 21.945 43.647 21.465C42.847 20.985 42.447 20.345 42.447 19.545C42.447 18.735 42.847 18.09 43.647 17.61C44.447 17.12 45.557 16.875 46.977 16.875C48.407 16.875 49.522 17.12 50.322 17.61C51.132 18.09 51.537 18.735 51.537 19.545ZM49.947 19.545C49.947 19.095 49.687 18.745 49.167 18.495C48.647 18.245 47.917 18.12 46.977 18.12C46.057 18.12 45.337 18.25 44.817 18.51C44.297 18.76 44.037 19.105 44.037 19.545C44.037 19.985 44.297 20.33 44.817 20.58C45.337 20.83 46.057 20.955 46.977 20.955C47.917 20.955 48.647 20.83 49.167 20.58C49.687 20.33 49.947 19.985 49.947 19.545ZM48.297 14.88L47.412 16.08C46.822 15.83 46.237 15.445 45.657 14.925C45.077 14.405 44.647 13.84 44.367 13.23C44.167 13.9 43.767 14.53 43.167 15.12C42.567 15.71 41.917 16.14 41.217 16.41L40.287 15.225C41.277 14.835 42.072 14.25 42.672 13.47C43.272 12.69 43.572 11.795 43.572 10.785V9.45H45.147V10.725C45.147 11.705 45.462 12.57 46.092 13.32C46.722 14.07 47.457 14.59 48.297 14.88Z" fill="white"/>
</svg>
