<svg width="67" height="31" viewBox="0 0 67 31" fill="none" xmlns="http://www.w3.org/2000/svg">
<rect width="67" height="31" rx="8" fill="#0078FF"/>
<path opacity="0.9" d="M25.715 16.83H24.23V13.605H22.955V16.695H21.5V9.06H22.955V12.345H24.23V8.82H25.715V16.83ZM14.825 12.465V11.235H20.705V12.465H18.575C18.665 13.185 18.93 13.785 19.37 14.265C19.82 14.735 20.38 15.08 21.05 15.3L20.24 16.455C19.77 16.285 19.3 15.995 18.83 15.585C18.36 15.175 18.03 14.735 17.84 14.265C17.66 14.775 17.33 15.265 16.85 15.735C16.38 16.195 15.85 16.555 15.26 16.815L14.345 15.69C15.975 15.03 16.87 13.955 17.03 12.465H14.825ZM16.625 17.475H25.73V22.2H24.2V18.69H16.625V17.475ZM16.1 10.41V9.18H19.55V10.41H16.1ZM34.6585 12.735C34.6585 13.665 34.3285 14.415 33.6685 14.985C33.0185 15.545 32.2035 15.825 31.2235 15.825C30.2635 15.825 29.4535 15.54 28.7935 14.97C28.1335 14.4 27.8035 13.655 27.8035 12.735C27.8035 11.825 28.1335 11.07 28.7935 10.47C29.4535 9.86 30.2635 9.555 31.2235 9.555C32.1835 9.555 32.9935 9.855 33.6535 10.455C34.3235 11.055 34.6585 11.815 34.6585 12.735ZM33.1585 12.72C33.1585 12.18 32.9835 11.73 32.6335 11.37C32.2835 11.01 31.8135 10.83 31.2235 10.83C30.6535 10.83 30.1885 11.015 29.8285 11.385C29.4685 11.745 29.2885 12.19 29.2885 12.72C29.2885 13.28 29.4685 13.74 29.8285 14.1C30.1885 14.46 30.6535 14.64 31.2235 14.64C31.7935 14.64 32.2585 14.46 32.6185 14.1C32.9785 13.73 33.1585 13.27 33.1585 12.72ZM36.8935 8.82H38.4235V16.335H36.8935V8.82ZM38.4385 22.02H29.6935V17.055H38.4385V22.02ZM36.9085 20.79V18.255H31.2385V20.79H36.9085ZM52.752 13.275H50.787V16.32H49.242V8.82H50.787V11.985H52.752V13.275ZM47.067 9.675C47.027 11.425 46.467 12.87 45.387 14.01C44.317 15.14 42.872 15.935 41.052 16.395L40.272 15.18C41.532 14.94 42.652 14.45 43.632 13.71C44.612 12.96 45.192 12.04 45.372 10.95H40.932V9.675H47.067ZM50.787 22.02H42.237V16.98H50.787V22.02ZM49.242 20.805V18.195H43.782V20.805H49.242Z" fill="white"/>
</svg>
