<svg width="80" height="31" viewBox="0 0 80 31" fill="none" xmlns="http://www.w3.org/2000/svg">
<rect width="80" height="31" rx="8" fill="#0078FF"/>
<path opacity="0.9" d="M23.915 17.625C24.735 18.095 25.145 18.72 25.145 19.5C25.145 20.28 24.735 20.905 23.915 21.375C23.095 21.855 21.955 22.095 20.495 22.095C19.035 22.095 17.895 21.855 17.075 21.375C16.265 20.905 15.86 20.28 15.86 19.5C15.86 18.72 16.265 18.095 17.075 17.625C17.895 17.145 19.03 16.905 20.48 16.905C21.95 16.905 23.095 17.145 23.915 17.625ZM24.92 9.42C24.92 11.34 24.765 12.995 24.455 14.385H26.525V15.63H14.45V14.385H22.97C23.09 13.945 23.185 13.35 23.255 12.6C23.335 11.85 23.375 11.2 23.375 10.65H15.995V9.42H24.92ZM22.73 20.505C23.28 20.265 23.555 19.93 23.555 19.5C23.555 19.07 23.28 18.735 22.73 18.495C22.18 18.255 21.43 18.135 20.48 18.135C19.54 18.135 18.795 18.255 18.245 18.495C17.695 18.735 17.42 19.07 17.42 19.5C17.42 19.93 17.69 20.265 18.23 20.505C18.78 20.745 19.53 20.865 20.48 20.865C21.43 20.865 22.18 20.745 22.73 20.505ZM38.5435 19.56C38.5435 20.36 38.1385 20.995 37.3285 21.465C36.5285 21.945 35.4135 22.185 33.9835 22.185C32.5635 22.185 31.4535 21.945 30.6535 21.465C29.8535 20.995 29.4535 20.36 29.4535 19.56C29.4535 18.75 29.8535 18.105 30.6535 17.625C31.4535 17.145 32.5635 16.905 33.9835 16.905C35.4135 16.905 36.5285 17.145 37.3285 17.625C38.1385 18.105 38.5435 18.75 38.5435 19.56ZM27.8935 10.95V9.675H34.9285V10.95H32.2585V10.995C32.2585 11.945 32.5535 12.775 33.1435 13.485C33.7435 14.195 34.4635 14.68 35.3035 14.94L34.4485 16.155C33.8585 15.925 33.2785 15.56 32.7085 15.06C32.1485 14.56 31.7335 14.015 31.4635 13.425C31.2735 14.055 30.8685 14.67 30.2485 15.27C29.6385 15.86 28.9885 16.285 28.2985 16.545L27.3685 15.345C28.3385 14.985 29.1285 14.425 29.7385 13.665C30.3585 12.895 30.6685 12.03 30.6685 11.07V10.95H27.8935ZM34.7185 13.335V12.06H36.8935V8.82H38.4385V16.86H36.8935V13.335H34.7185ZM33.9835 18.165C33.0635 18.165 32.3435 18.29 31.8235 18.54C31.3035 18.78 31.0435 19.12 31.0435 19.56C31.0435 19.99 31.3035 20.33 31.8235 20.58C32.3435 20.82 33.0635 20.94 33.9835 20.94C34.9235 20.94 35.6535 20.82 36.1735 20.58C36.7035 20.34 36.9685 20 36.9685 19.56C36.9685 19.12 36.7085 18.78 36.1885 18.54C35.6685 18.29 34.9335 18.165 33.9835 18.165ZM40.872 10.95V9.675H47.892V10.95H45.237V11.115C45.237 12.065 45.532 12.89 46.122 13.59C46.712 14.29 47.427 14.775 48.267 15.045L47.412 16.26C46.832 16.03 46.257 15.665 45.687 15.165C45.127 14.665 44.712 14.12 44.442 13.53C44.252 14.16 43.847 14.775 43.227 15.375C42.617 15.965 41.967 16.39 41.277 16.65L40.347 15.45C41.317 15.09 42.107 14.525 42.717 13.755C43.337 12.985 43.647 12.125 43.647 11.175V10.95H40.872ZM42.417 17.385H51.432V22.2H49.902V18.615H42.417V17.385ZM51.417 16.695H49.887V13.425H47.712V12.15H49.887V8.82H51.417V16.695ZM64.3805 18.51H62.8505V8.82H64.3805V18.51ZM64.6955 21.795H55.5455V17.595H57.0755V20.565H64.6955V21.795ZM59.6705 10.725C60.3105 11.335 60.6305 12.12 60.6305 13.08C60.6305 14.04 60.3105 14.825 59.6705 15.435C59.0405 16.045 58.2205 16.35 57.2105 16.35C56.1905 16.35 55.3605 16.045 54.7205 15.435C54.0805 14.825 53.7605 14.045 53.7605 13.095C53.7605 12.135 54.0805 11.35 54.7205 10.74C55.3605 10.12 56.1905 9.81 57.2105 9.81C58.2205 9.81 59.0405 10.115 59.6705 10.725ZM59.1005 13.08C59.1005 12.49 58.9305 12.01 58.5905 11.64C58.2505 11.27 57.7905 11.085 57.2105 11.085C56.6505 11.085 56.1905 11.275 55.8305 11.655C55.4805 12.025 55.3055 12.5 55.3055 13.08C55.3055 13.64 55.4805 14.11 55.8305 14.49C56.1905 14.86 56.6505 15.045 57.2105 15.045C57.7805 15.045 58.2355 14.86 58.5755 14.49C58.9255 14.11 59.1005 13.64 59.1005 13.08Z" fill="white"/>
</svg>
