<svg width="80" height="31" viewBox="0 0 80 31" fill="none" xmlns="http://www.w3.org/2000/svg">
<rect width="80" height="31" rx="8" fill="#0078FF"/>
<path opacity="0.9" d="M21.23 22.2H19.7V17.34H14.45V16.125H26.525V17.34H21.23V22.2ZM26.015 13.56L25.31 14.805C24.3 14.635 23.325 14.255 22.385 13.665C21.455 13.075 20.825 12.415 20.495 11.685C20.215 12.405 19.61 13.06 18.68 13.65C17.75 14.24 16.76 14.63 15.71 14.82L15.035 13.56C16.265 13.42 17.35 12.99 18.29 12.27C19.23 11.55 19.7 10.725 19.7 9.795V9.12H21.32V9.795C21.32 10.405 21.56 10.995 22.04 11.565C22.53 12.125 23.13 12.58 23.84 12.93C24.56 13.28 25.285 13.49 26.015 13.56ZM38.1085 11.52C38.1085 12.41 37.5835 13.085 36.5335 13.545V15.27H39.5035V16.5H27.4285V15.27H30.3535V13.515C29.3435 13.055 28.8385 12.39 28.8385 11.52C28.8385 10.76 29.2485 10.15 30.0685 9.69C30.8885 9.23 32.0185 9 33.4585 9C34.9185 9 36.0585 9.23 36.8785 9.69C37.6985 10.15 38.1085 10.76 38.1085 11.52ZM38.1085 19.725C38.1085 20.495 37.6985 21.095 36.8785 21.525C36.0685 21.955 34.9335 22.17 33.4735 22.17C32.0135 22.17 30.8735 21.955 30.0535 21.525C29.2435 21.095 28.8385 20.495 28.8385 19.725C28.8385 18.965 29.2435 18.37 30.0535 17.94C30.8735 17.51 32.0085 17.295 33.4585 17.295C34.9285 17.295 36.0685 17.51 36.8785 17.94C37.6985 18.37 38.1085 18.965 38.1085 19.725ZM35.6935 12.51C36.2435 12.27 36.5185 11.94 36.5185 11.52C36.5185 11.1 36.2435 10.77 35.6935 10.53C35.1535 10.29 34.4085 10.17 33.4585 10.17C32.5085 10.17 31.7635 10.295 31.2235 10.545C30.6835 10.785 30.4135 11.11 30.4135 11.52C30.4135 11.94 30.6835 12.27 31.2235 12.51C31.7635 12.75 32.5085 12.87 33.4585 12.87C34.3985 12.87 35.1435 12.75 35.6935 12.51ZM35.7085 20.64C36.2485 20.43 36.5185 20.13 36.5185 19.74C36.5185 19.35 36.2435 19.05 35.6935 18.84C35.1435 18.62 34.3985 18.51 33.4585 18.51C32.5185 18.51 31.7735 18.62 31.2235 18.84C30.6835 19.05 30.4135 19.35 30.4135 19.74C30.4135 20.13 30.6835 20.43 31.2235 20.64C31.7635 20.84 32.5085 20.94 33.4585 20.94C34.4185 20.94 35.1685 20.84 35.7085 20.64ZM33.4735 14.055C32.7835 14.055 32.2535 14.02 31.8835 13.95V15.27H35.0035V13.965C34.6335 14.025 34.1235 14.055 33.4735 14.055ZM40.872 10.95V9.675H47.892V10.95H45.237V11.115C45.237 12.065 45.532 12.89 46.122 13.59C46.712 14.29 47.427 14.775 48.267 15.045L47.412 16.26C46.832 16.03 46.257 15.665 45.687 15.165C45.127 14.665 44.712 14.12 44.442 13.53C44.252 14.16 43.847 14.775 43.227 15.375C42.617 15.965 41.967 16.39 41.277 16.65L40.347 15.45C41.317 15.09 42.107 14.525 42.717 13.755C43.337 12.985 43.647 12.125 43.647 11.175V10.95H40.872ZM42.417 17.385H51.432V22.2H49.902V18.615H42.417V17.385ZM51.417 16.695H49.887V13.425H47.712V12.15H49.887V8.82H51.417V16.695ZM64.3805 18.51H62.8505V8.82H64.3805V18.51ZM64.6955 21.795H55.5455V17.595H57.0755V20.565H64.6955V21.795ZM59.6705 10.725C60.3105 11.335 60.6305 12.12 60.6305 13.08C60.6305 14.04 60.3105 14.825 59.6705 15.435C59.0405 16.045 58.2205 16.35 57.2105 16.35C56.1905 16.35 55.3605 16.045 54.7205 15.435C54.0805 14.825 53.7605 14.045 53.7605 13.095C53.7605 12.135 54.0805 11.35 54.7205 10.74C55.3605 10.12 56.1905 9.81 57.2105 9.81C58.2205 9.81 59.0405 10.115 59.6705 10.725ZM59.1005 13.08C59.1005 12.49 58.9305 12.01 58.5905 11.64C58.2505 11.27 57.7905 11.085 57.2105 11.085C56.6505 11.085 56.1905 11.275 55.8305 11.655C55.4805 12.025 55.3055 12.5 55.3055 13.08C55.3055 13.64 55.4805 14.11 55.8305 14.49C56.1905 14.86 56.6505 15.045 57.2105 15.045C57.7805 15.045 58.2355 14.86 58.5755 14.49C58.9255 14.11 59.1005 13.64 59.1005 13.08Z" fill="white"/>
</svg>
