<svg width="67" height="31" viewBox="0 0 67 31" fill="none" xmlns="http://www.w3.org/2000/svg">
<rect width="67" height="31" rx="8" fill="#0078FF"/>
<path opacity="0.9" d="M23.78 18.805C24.59 19.265 24.995 19.88 24.995 20.65C24.995 21.42 24.59 22.035 23.78 22.495C22.98 22.955 21.875 23.185 20.465 23.185C19.055 23.185 17.945 22.955 17.135 22.495C16.335 22.035 15.935 21.42 15.935 20.65C15.935 19.88 16.335 19.265 17.135 18.805C17.945 18.335 19.055 18.1 20.465 18.1C21.875 18.1 22.98 18.335 23.78 18.805ZM22.64 19.69C22.12 19.45 21.395 19.33 20.465 19.33C19.535 19.33 18.81 19.45 18.29 19.69C17.77 19.93 17.51 20.25 17.51 20.65C17.51 21.05 17.77 21.37 18.29 21.61C18.81 21.84 19.535 21.955 20.465 21.955C21.395 21.955 22.12 21.84 22.64 21.61C23.16 21.37 23.42 21.05 23.42 20.65C23.42 20.25 23.16 19.93 22.64 19.69ZM22.085 16.375L21.29 17.59C20.71 17.39 20.125 17.065 19.535 16.615C18.955 16.155 18.53 15.645 18.26 15.085C18.03 15.695 17.61 16.265 17 16.795C16.4 17.325 15.75 17.71 15.05 17.95L14.18 16.765C15.01 16.495 15.72 16.075 16.31 15.505C16.9 14.935 17.265 14.245 17.405 13.435H14.735V12.22H21.755V13.435H19.1C19.21 14.145 19.54 14.755 20.09 15.265C20.64 15.775 21.305 16.145 22.085 16.375ZM26.81 14.47H24.83V17.89H23.285V9.82H24.83V13.18H26.81V14.47ZM20.15 11.35H16.355V10.12H20.15V11.35ZM35.1385 14.065C35.1385 14.975 34.8035 15.71 34.1335 16.27C33.4735 16.83 32.6435 17.11 31.6435 17.11C30.6535 17.11 29.8335 16.83 29.1835 16.27C28.5435 15.7 28.2235 14.965 28.2235 14.065C28.2235 13.145 28.5485 12.385 29.1985 11.785C29.8585 11.175 30.6735 10.87 31.6435 10.87C32.6435 10.87 33.4735 11.17 34.1335 11.77C34.8035 12.37 35.1385 13.135 35.1385 14.065ZM33.5935 14.05C33.5935 13.49 33.4085 13.04 33.0385 12.7C32.6685 12.36 32.2035 12.19 31.6435 12.19C31.1135 12.19 30.6585 12.365 30.2785 12.715C29.9085 13.065 29.7235 13.51 29.7235 14.05C29.7235 14.57 29.9085 14.995 30.2785 15.325C30.6585 15.645 31.1135 15.805 31.6435 15.805C32.1835 15.805 32.6435 15.645 33.0235 15.325C33.4035 14.995 33.5935 14.57 33.5935 14.05ZM38.6035 9.82V23.185H37.0735V9.82H38.6035ZM36.3235 18.535L36.4435 19.765C33.7635 20.055 30.8035 20.21 27.5635 20.23L27.3235 18.91C29.0935 18.93 30.5735 18.905 31.7635 18.835C33.5635 18.765 35.0835 18.665 36.3235 18.535ZM51.417 17.68H49.887V13.9H47.442V12.64H49.887V9.82H51.417V17.68ZM51.537 20.545C51.537 21.345 51.132 21.985 50.322 22.465C49.522 22.945 48.407 23.185 46.977 23.185C45.557 23.185 44.447 22.945 43.647 22.465C42.847 21.985 42.447 21.345 42.447 20.545C42.447 19.735 42.847 19.09 43.647 18.61C44.447 18.12 45.557 17.875 46.977 17.875C48.407 17.875 49.522 18.12 50.322 18.61C51.132 19.09 51.537 19.735 51.537 20.545ZM49.947 20.545C49.947 20.095 49.687 19.745 49.167 19.495C48.647 19.245 47.917 19.12 46.977 19.12C46.057 19.12 45.337 19.25 44.817 19.51C44.297 19.76 44.037 20.105 44.037 20.545C44.037 20.985 44.297 21.33 44.817 21.58C45.337 21.83 46.057 21.955 46.977 21.955C47.917 21.955 48.647 21.83 49.167 21.58C49.687 21.33 49.947 20.985 49.947 20.545ZM48.297 15.88L47.412 17.08C46.822 16.83 46.237 16.445 45.657 15.925C45.077 15.405 44.647 14.84 44.367 14.23C44.167 14.9 43.767 15.53 43.167 16.12C42.567 16.71 41.917 17.14 41.217 17.41L40.287 16.225C41.277 15.835 42.072 15.25 42.672 14.47C43.272 13.69 43.572 12.795 43.572 11.785V10.45H45.147V11.725C45.147 12.705 45.462 13.57 46.092 14.32C46.722 15.07 47.457 15.59 48.297 15.88Z" fill="white"/>
</svg>
