<svg width="190" height="49" viewBox="0 0 190 49" fill="none" xmlns="http://www.w3.org/2000/svg">
<rect x="44" y="15" width="142" height="34" rx="17" fill="#0078FF"/>
<path opacity="0.9" d="M61.776 32.94H68.844V33.924H65.976C66.04 34.5 66.412 34.984 67.092 35.376C67.772 35.768 68.532 36.012 69.372 36.108L68.808 37.044C68.12 36.988 67.408 36.74 66.672 36.3C65.944 35.868 65.488 35.416 65.304 34.944C65.096 35.424 64.648 35.868 63.96 36.276C63.28 36.692 62.556 36.94 61.788 37.02L61.224 36.108C62.088 36.052 62.844 35.828 63.492 35.436C64.148 35.036 64.536 34.532 64.656 33.924H61.776V32.94ZM60.6 29.088V28.092H66.204V29.088H64.068C64.18 29.664 64.456 30.144 64.896 30.528C65.344 30.912 65.868 31.184 66.468 31.344L65.832 32.304C65.376 32.16 64.912 31.904 64.44 31.536C63.976 31.168 63.632 30.764 63.408 30.324C63.224 30.804 62.888 31.26 62.4 31.692C61.912 32.116 61.392 32.42 60.84 32.604L60.144 31.656C60.84 31.424 61.42 31.092 61.884 30.66C62.348 30.22 62.628 29.696 62.724 29.088H60.6ZM70.236 29.832H68.664V32.424H67.428V26.256H68.664V28.8H70.236V29.832ZM61.884 27.42V26.424H64.92V27.42H61.884ZM79.0468 26.256V30.432H80.7028V31.452H79.0468V36.948H77.8108V26.256H79.0468ZM71.5948 33.552C71.1068 32.872 70.8628 31.964 70.8628 30.828C70.8628 29.692 71.1068 28.784 71.5948 28.104C72.0828 27.424 72.7508 27.084 73.5988 27.084C74.4468 27.084 75.1108 27.424 75.5908 28.104C76.0708 28.784 76.3108 29.696 76.3108 30.84C76.3108 31.976 76.0708 32.884 75.5908 33.564C75.1108 34.236 74.4468 34.572 73.5988 34.572C72.7508 34.572 72.0828 34.232 71.5948 33.552ZM74.7148 32.844C75.0028 32.348 75.1468 31.676 75.1468 30.828C75.1468 29.98 75.0028 29.312 74.7148 28.824C74.4348 28.336 74.0628 28.092 73.5988 28.092C73.1428 28.092 72.7748 28.336 72.4948 28.824C72.2148 29.312 72.0748 29.98 72.0748 30.828C72.0748 31.676 72.2148 32.348 72.4948 32.844C72.7748 33.332 73.1428 33.576 73.5988 33.576C74.0628 33.576 74.4348 33.332 74.7148 32.844ZM89.8856 27.684H86.6336C86.7376 28.308 87.1656 28.852 87.9176 29.316C88.6696 29.78 89.4736 30.056 90.3296 30.144L89.7776 31.116C89.0256 31.004 88.2696 30.732 87.5096 30.3C86.7496 29.86 86.2336 29.396 85.9616 28.908C85.7056 29.42 85.2056 29.896 84.4616 30.336C83.7176 30.768 82.9456 31.044 82.1456 31.164L81.5576 30.192C82.4376 30.104 83.2576 29.824 84.0176 29.352C84.7776 28.872 85.2096 28.316 85.3136 27.684H82.0136V26.688H89.8856V27.684ZM86.5496 36.936H85.3256V33.132H81.1256V32.148H90.7856V33.132H86.5496V36.936ZM97.0764 29.496V28.512H99.0924V26.256H100.316V36.948H99.0924V32.184H97.0764V31.188H99.0924V29.496H97.0764ZM98.0124 33.6L97.2684 34.512C96.7884 34.208 96.2964 33.752 95.7924 33.144C95.2964 32.536 94.9564 31.952 94.7724 31.392C94.5884 32.024 94.2524 32.648 93.7644 33.264C93.2844 33.872 92.7564 34.352 92.1804 34.704L91.4124 33.816C92.2524 33.264 92.9124 32.564 93.3924 31.716C93.8724 30.868 94.1124 29.94 94.1124 28.932V27.168H95.3724V28.86C95.3724 29.86 95.6084 30.776 96.0804 31.608C96.5604 32.432 97.2044 33.096 98.0124 33.6ZM110.699 36.948H109.475V30.972H107.387V29.94H109.475V26.256H110.699V36.948ZM108.395 33.6L107.651 34.512C107.171 34.208 106.679 33.752 106.175 33.144C105.679 32.536 105.339 31.952 105.155 31.392C104.971 32.024 104.635 32.648 104.147 33.264C103.667 33.872 103.139 34.352 102.563 34.704L101.795 33.816C102.635 33.264 103.295 32.564 103.775 31.716C104.255 30.868 104.495 29.94 104.495 28.932V27.168H105.755V28.86C105.755 29.86 105.991 30.776 106.463 31.608C106.943 32.432 107.587 33.096 108.395 33.6ZM125.302 29.82H123.73V32.256H122.494V26.256H123.73V28.788H125.302V29.82ZM120.754 26.94C120.722 28.34 120.274 29.496 119.41 30.408C118.554 31.312 117.398 31.948 115.942 32.316L115.318 31.344C116.326 31.152 117.222 30.76 118.006 30.168C118.79 29.568 119.254 28.832 119.398 27.96H115.846V26.94H120.754ZM123.73 36.816H116.89V32.784H123.73V36.816ZM122.494 35.844V33.756H118.126V35.844H122.494ZM134.113 26.256V30.432H135.721V31.464H134.113V36.948H132.877V26.256H134.113ZM132.205 33.408L131.473 34.332C130.985 34.012 130.485 33.552 129.973 32.952C129.461 32.344 129.113 31.76 128.929 31.2C128.745 31.832 128.409 32.456 127.921 33.072C127.441 33.688 126.905 34.172 126.313 34.524L125.557 33.624C126.405 33.072 127.069 32.372 127.549 31.524C128.037 30.676 128.281 29.748 128.281 28.74V27.18H129.541V28.668C129.541 29.668 129.781 30.58 130.261 31.404C130.749 32.228 131.397 32.896 132.205 33.408ZM142.3 28.8H136.108V27.864H142.3V28.8ZM141.7 30.888C141.7 31.384 141.472 31.792 141.016 32.112C140.568 32.432 139.968 32.592 139.216 32.592C138.456 32.592 137.848 32.432 137.392 32.112C136.936 31.792 136.708 31.384 136.708 30.888C136.708 30.384 136.936 29.972 137.392 29.652C137.848 29.332 138.456 29.172 139.216 29.172C139.968 29.172 140.568 29.332 141.016 29.652C141.472 29.972 141.7 30.384 141.7 30.888ZM140.152 31.476C140.416 31.324 140.548 31.128 140.548 30.888C140.548 30.648 140.416 30.452 140.152 30.3C139.888 30.14 139.576 30.06 139.216 30.06C138.856 30.06 138.54 30.14 138.268 30.3C137.996 30.452 137.86 30.648 137.86 30.888C137.86 31.128 137.996 31.324 138.268 31.476C138.54 31.62 138.856 31.692 139.216 31.692C139.576 31.692 139.888 31.62 140.152 31.476ZM137.656 27.252V26.304H140.788V27.252H137.656ZM146.068 29.976H144.496V32.4H143.26V26.256H144.496V28.944H146.068V29.976ZM144.496 36.852H137.644V32.964H138.88V33.948H143.26V32.94H144.496V36.852ZM143.26 35.88V34.932H138.88V35.88H143.26ZM155.335 36.948H154.111V26.256H155.335V36.948ZM153.127 32.844L153.271 33.852C152.655 34.004 151.859 34.128 150.883 34.224C149.907 34.32 149.051 34.372 148.315 34.38H147.199V27.36H148.411V33.3C149.091 33.324 149.891 33.288 150.811 33.192C151.731 33.096 152.503 32.98 153.127 32.844ZM166.858 31.38H165.25V36.948H164.026V26.256H165.25V30.348H166.858V31.38ZM163.03 32.964L163.186 33.972C162.026 34.212 160.47 34.332 158.518 34.332H157.39V27.252H162.25V28.26H158.602V33.3C160.338 33.332 161.814 33.22 163.03 32.964ZM167.82 35.628V34.332H169.14V35.628H167.82Z" fill="white"/>
<path d="M184.5 42.5C185.001 45.5086 187.833 48.3333 189.5 49C183.1 49 179 46.8333 178 45.5L173 47L173.5 32H184V34V36V36.5C184 37.5 184 39.5 184.5 42.5Z" fill="#0078FF"/>
</svg>
