<svg width="218" height="49" viewBox="0 0 218 49" fill="none" xmlns="http://www.w3.org/2000/svg">
<rect width="214" height="49" rx="20" fill="#0078FF"/>
<path opacity="0.9" d="M20.98 12.48H17.848V11.496H20.98V12.48ZM22.156 14.112H16.396V13.152H22.156V14.112ZM25.396 21.636H18.184V18.768H19.42V20.652H25.396V21.636ZM25.156 19.128H23.932V17.364H22.384V16.368H23.932V15.156H22.384V14.148H23.932V11.256H25.156V19.128ZM21.904 16.38C21.904 16.932 21.668 17.38 21.196 17.724C20.724 18.06 20.124 18.228 19.396 18.228C18.668 18.228 18.068 18.06 17.596 17.724C17.124 17.38 16.888 16.932 16.888 16.38C16.888 15.836 17.124 15.392 17.596 15.048C18.076 14.696 18.676 14.52 19.396 14.52C20.116 14.52 20.712 14.696 21.184 15.048C21.664 15.392 21.904 15.836 21.904 16.38ZM20.344 17.04C20.608 16.872 20.74 16.652 20.74 16.38C20.74 16.108 20.608 15.888 20.344 15.72C20.088 15.544 19.772 15.456 19.396 15.456C19.012 15.456 18.692 15.544 18.436 15.72C18.18 15.888 18.052 16.108 18.052 16.38C18.052 16.652 18.18 16.872 18.436 17.04C18.692 17.208 19.012 17.292 19.396 17.292C19.772 17.292 20.088 17.208 20.344 17.04ZM35.7548 21.948H34.5788V16.536H33.5228V21.444H32.3588V11.472H33.5228V15.504H34.5788V11.256H35.7548V21.948ZM32.0348 18.552L31.3148 19.44C30.9308 19.2 30.5428 18.828 30.1508 18.324C29.7668 17.812 29.5068 17.312 29.3708 16.824C29.2508 17.344 28.9908 17.88 28.5908 18.432C28.1908 18.976 27.7548 19.392 27.2828 19.68L26.5148 18.852C28.0268 17.852 28.7828 16.316 28.7828 14.244V13.5H26.8988V12.516H31.7348V13.5H29.9828V14.208C29.9828 15.24 30.1668 16.132 30.5348 16.884C30.9108 17.636 31.4108 18.192 32.0348 18.552ZM49.506 21.816H42.126V18.192H43.338V19.02H48.282V18.168H49.506V21.816ZM45.342 13.152C45.342 13.648 45.122 14.044 44.682 14.34C44.25 14.636 43.698 14.784 43.026 14.784C42.362 14.784 41.814 14.636 41.382 14.34C40.95 14.044 40.734 13.644 40.734 13.14C40.734 12.636 40.95 12.236 41.382 11.94C41.814 11.644 42.362 11.496 43.026 11.496C43.698 11.496 44.25 11.648 44.682 11.952C45.122 12.248 45.342 12.648 45.342 13.152ZM44.658 17.256V16.38H46.362V11.448H47.526V17.7H46.362V17.256H44.658ZM49.506 17.736H48.33V11.256H49.506V17.736ZM43.578 17.712H42.414V16.188C41.782 16.228 41.066 16.256 40.266 16.272L40.122 15.264C41.634 15.24 42.666 15.216 43.218 15.192C44.29 15.144 45.166 15.076 45.846 14.988L45.918 15.876C45.27 15.964 44.49 16.044 43.578 16.116V17.712ZM48.282 20.856V19.98H43.338V20.856H48.282ZM44.202 13.14C44.202 12.932 44.09 12.76 43.866 12.624C43.65 12.488 43.37 12.42 43.026 12.42C42.674 12.42 42.39 12.488 42.174 12.624C41.966 12.752 41.862 12.924 41.862 13.14C41.862 13.356 41.97 13.532 42.186 13.668C42.402 13.804 42.682 13.872 43.026 13.872C43.362 13.872 43.642 13.804 43.866 13.668C44.09 13.532 44.202 13.356 44.202 13.14ZM62.1171 11.256V15.432H63.7251V16.464H62.1171V21.948H60.8811V11.256H62.1171ZM60.2091 18.408L59.4771 19.332C58.9891 19.012 58.4891 18.552 57.9771 17.952C57.4651 17.344 57.1171 16.76 56.9331 16.2C56.7491 16.832 56.4131 17.456 55.9251 18.072C55.4451 18.688 54.9091 19.172 54.3171 19.524L53.5611 18.624C54.4091 18.072 55.0731 17.372 55.5531 16.524C56.0411 15.676 56.2851 14.748 56.2851 13.74V12.18H57.5451V13.668C57.5451 14.668 57.7851 15.58 58.2651 16.404C58.7531 17.228 59.4011 17.896 60.2091 18.408ZM72.9919 21.948H71.7679V11.256H72.9919V21.948ZM65.2399 18.552C64.7519 17.872 64.5079 16.964 64.5079 15.828C64.5079 14.692 64.7519 13.784 65.2399 13.104C65.7279 12.424 66.3959 12.084 67.2439 12.084C68.0919 12.084 68.7559 12.424 69.2359 13.104C69.7159 13.784 69.9559 14.696 69.9559 15.84C69.9559 16.976 69.7159 17.884 69.2359 18.564C68.7559 19.236 68.0919 19.572 67.2439 19.572C66.3959 19.572 65.7279 19.232 65.2399 18.552ZM68.3599 17.844C68.6479 17.348 68.7919 16.676 68.7919 15.828C68.7919 14.98 68.6479 14.312 68.3599 13.824C68.0799 13.336 67.7079 13.092 67.2439 13.092C66.7879 13.092 66.4199 13.336 66.1399 13.824C65.8599 14.312 65.7199 14.98 65.7199 15.828C65.7199 16.676 65.8599 17.348 66.1399 17.844C66.4199 18.332 66.7879 18.576 67.2439 18.576C67.7079 18.576 68.0799 18.332 68.3599 17.844ZM82.6308 15.324H77.0508V16.692H83.0988V17.664H75.8148V12.072H82.9908V13.056H77.0508V14.352H82.6308V15.324ZM84.2388 19.608V20.592H74.5788V19.608H84.2388ZM94.6216 17.58H84.9616V16.584H94.6216V17.58ZM93.4336 15.276H86.2696V11.604H87.5056V14.292H93.4336V15.276ZM93.5056 21.66H86.2096V18.516H87.4456V20.676H93.5056V21.66ZM108.397 16.38H106.789V21.948H105.565V11.256H106.789V15.348H108.397V16.38ZM104.569 17.964L104.725 18.972C103.565 19.212 102.009 19.332 100.057 19.332H98.9287V12.252H103.789V13.26H100.141V18.3C101.877 18.332 103.353 18.22 104.569 17.964ZM114.436 14.376C114.436 15.12 114.172 15.716 113.644 16.164C113.124 16.612 112.472 16.836 111.688 16.836C110.912 16.836 110.26 16.612 109.732 16.164C109.204 15.716 108.94 15.124 108.94 14.388C108.94 13.66 109.204 13.056 109.732 12.576C110.268 12.096 110.92 11.856 111.688 11.856C112.456 11.856 113.104 12.092 113.632 12.564C114.168 13.036 114.436 13.64 114.436 14.376ZM113.236 14.376C113.236 13.944 113.096 13.588 112.816 13.308C112.536 13.02 112.16 12.876 111.688 12.876C111.232 12.876 110.86 13.02 110.572 13.308C110.292 13.596 110.152 13.952 110.152 14.376C110.152 14.824 110.292 15.192 110.572 15.48C110.86 15.76 111.232 15.9 111.688 15.9C112.144 15.9 112.516 15.756 112.804 15.468C113.092 15.18 113.236 14.816 113.236 14.376ZM116.356 18.264C116.996 18.648 117.316 19.164 117.316 19.812C117.316 20.46 116.996 20.976 116.356 21.36C115.724 21.744 114.836 21.936 113.692 21.936C112.556 21.936 111.672 21.744 111.04 21.36C110.408 20.976 110.092 20.46 110.092 19.812C110.092 19.156 110.408 18.64 111.04 18.264C111.672 17.88 112.556 17.688 113.692 17.688C114.836 17.688 115.724 17.88 116.356 18.264ZM115.432 20.64C115.848 20.44 116.056 20.164 116.056 19.812C116.056 19.46 115.848 19.184 115.432 18.984C115.016 18.776 114.436 18.672 113.692 18.672C112.964 18.672 112.392 18.776 111.976 18.984C111.568 19.184 111.364 19.46 111.364 19.812C111.364 20.164 111.568 20.44 111.976 20.64C112.384 20.84 112.956 20.94 113.692 20.94C114.436 20.94 115.016 20.84 115.432 20.64ZM118.756 13.764H117.184V15.108H118.756V16.116H117.184V17.568H115.948V11.256H117.184V12.768H118.756V13.764ZM125.37 14.112H119.178V13.14H125.37V14.112ZM124.806 16.38C124.806 16.932 124.57 17.38 124.098 17.724C123.626 18.068 123.026 18.24 122.298 18.24C121.57 18.24 120.966 18.068 120.486 17.724C120.006 17.38 119.766 16.932 119.766 16.38C119.766 15.836 120.002 15.392 120.474 15.048C120.954 14.696 121.562 14.52 122.298 14.52C123.018 14.52 123.614 14.696 124.086 15.048C124.566 15.392 124.806 15.836 124.806 16.38ZM123.63 16.38C123.63 16.108 123.498 15.888 123.234 15.72C122.978 15.544 122.666 15.456 122.298 15.456C121.914 15.456 121.59 15.54 121.326 15.708C121.07 15.876 120.942 16.1 120.942 16.38C120.942 16.66 121.07 16.884 121.326 17.052C121.582 17.212 121.906 17.292 122.298 17.292C122.674 17.292 122.99 17.212 123.246 17.052C123.502 16.884 123.63 16.66 123.63 16.38ZM120.726 12.48V11.496H123.858V12.48H120.726ZM127.566 11.256V14.604H129.15V15.624H127.566V19.164H126.33V11.256H127.566ZM127.878 21.66H120.726V18.792H121.962V20.676H127.878V21.66ZM139.338 18.96L139.434 19.908C137.61 20.148 135.37 20.276 132.714 20.292L132.546 19.272C133.802 19.272 134.762 19.26 135.426 19.236V18.276C134.802 18.196 134.298 17.996 133.914 17.676C133.538 17.348 133.35 16.952 133.35 16.488C133.35 15.96 133.59 15.528 134.07 15.192C134.558 14.856 135.182 14.688 135.942 14.688C136.702 14.688 137.322 14.856 137.802 15.192C138.29 15.528 138.534 15.96 138.534 16.488C138.534 16.92 138.362 17.296 138.018 17.616C137.682 17.936 137.23 18.148 136.662 18.252V19.188C137.83 19.108 138.722 19.032 139.338 18.96ZM141.186 11.256V15.804H142.71V16.824H141.186V21.948H139.962V11.256H141.186ZM139.002 14.304H132.822V13.344H139.002V14.304ZM136.89 17.1C137.138 16.94 137.262 16.736 137.262 16.488C137.262 16.24 137.138 16.036 136.89 15.876C136.642 15.716 136.326 15.636 135.942 15.636C135.566 15.636 135.25 15.716 134.994 15.876C134.746 16.036 134.622 16.24 134.622 16.488C134.622 16.736 134.746 16.94 134.994 17.1C135.242 17.252 135.558 17.328 135.942 17.328C136.326 17.328 136.642 17.252 136.89 17.1ZM134.37 12.744V11.784H137.49V12.744H134.37ZM149.084 13.956V12.96H150.752V11.256H151.976V19.008H150.752V16.32H149.084V15.312H150.752V13.956H149.084ZM152.204 21.636H145.004V18.336H146.24V20.652H152.204V21.636ZM148.532 17.124H143.648V12.18H148.532V17.124ZM147.296 16.176V13.14H144.872V16.176H147.296ZM165.175 12.456C165.175 15.248 165.007 17.38 164.671 18.852L163.483 18.732C163.651 18.036 163.767 17.208 163.831 16.248L157.675 16.596L157.519 15.624L163.879 15.324C163.903 14.916 163.923 14.288 163.939 13.44H157.855V12.456H165.175ZM166.375 20.496H156.715V19.5H166.375V20.496ZM175.906 21.948H174.682V11.256H175.906V21.948ZM172.63 12.384C172.558 15.704 170.954 18.224 167.818 19.944L167.05 19.008C168.258 18.456 169.242 17.668 170.002 16.644C170.77 15.62 171.206 14.536 171.31 13.392H167.674V12.384H172.63ZM184.021 18.54L184.117 19.488C182.309 19.736 180.069 19.868 177.397 19.884L177.229 18.852C178.445 18.852 179.373 18.84 180.013 18.816V16.956C179.357 16.852 178.829 16.588 178.429 16.164C178.029 15.732 177.829 15.192 177.829 14.544C177.829 13.816 178.093 13.212 178.621 12.732C179.157 12.252 179.817 12.012 180.601 12.012C181.393 12.012 182.057 12.252 182.593 12.732C183.137 13.204 183.409 13.808 183.409 14.544C183.409 15.176 183.205 15.708 182.797 16.14C182.397 16.572 181.877 16.84 181.237 16.944V18.78C182.485 18.7 183.413 18.62 184.021 18.54ZM185.869 11.256V15.612H187.441V16.632H185.869V21.948H184.645V11.256H185.869ZM182.161 14.544C182.161 14.08 182.013 13.716 181.717 13.452C181.421 13.18 181.049 13.044 180.601 13.044C180.161 13.044 179.789 13.184 179.485 13.464C179.189 13.736 179.041 14.092 179.041 14.532C179.041 14.972 179.193 15.324 179.497 15.588C179.801 15.852 180.169 15.984 180.601 15.984C181.041 15.984 181.409 15.852 181.705 15.588C182.009 15.324 182.161 14.976 182.161 14.544ZM25.168 36.948H23.944V26.256H25.168V36.948ZM21.892 27.384C21.82 30.704 20.216 33.224 17.08 34.944L16.312 34.008C17.52 33.456 18.504 32.668 19.264 31.644C20.032 30.62 20.468 29.536 20.572 28.392H16.936V27.384H21.892ZM35.5508 36.948H34.3268V26.256H35.5508V36.948ZM32.2748 27.384C32.2028 30.704 30.5988 33.224 27.4628 34.944L26.6948 34.008C27.9028 33.456 28.8868 32.668 29.6468 31.644C30.4148 30.62 30.8508 29.536 30.9548 28.392H27.3188V27.384H32.2748ZM44.0616 36.444H42.8976V31.416H41.8296C41.7736 32.368 41.5536 33.144 41.1696 33.744C40.7856 34.336 40.2456 34.632 39.5496 34.632C39.0376 34.632 38.6016 34.456 38.2416 34.104C37.8896 33.752 37.6336 33.304 37.4736 32.76C37.3216 32.208 37.2456 31.58 37.2456 30.876C37.2456 29.796 37.4376 28.904 37.8216 28.2C38.2136 27.496 38.7896 27.144 39.5496 27.144C40.2456 27.144 40.7856 27.448 41.1696 28.056C41.5616 28.656 41.7816 29.436 41.8296 30.396H42.8976V26.46H44.0616V36.444ZM46.1376 36.948H44.9616V26.256H46.1376V36.948ZM40.4016 32.832C40.5936 32.344 40.6896 31.696 40.6896 30.888C40.6896 30.08 40.5936 29.432 40.4016 28.944C40.2096 28.448 39.9296 28.2 39.5616 28.2C39.1936 28.2 38.9136 28.448 38.7216 28.944C38.5296 29.432 38.4336 30.08 38.4336 30.888C38.4336 31.688 38.5296 32.332 38.7216 32.82C38.9136 33.308 39.1936 33.552 39.5616 33.552C39.9296 33.552 40.2096 33.312 40.4016 32.832ZM59.6728 36.948H58.4848V31.536H57.4048V36.432H56.2408V26.472H57.4048V30.504H58.4848V26.256H59.6728V36.948ZM55.4968 33.048L55.6528 34.032C54.7808 34.232 53.5928 34.332 52.0888 34.332H51.0088V27.552H55.0408V28.548C54.7288 28.548 54.2608 28.548 53.6368 28.548C53.0208 28.54 52.5608 28.536 52.2568 28.536V33.312C53.6328 33.312 54.7128 33.224 55.4968 33.048ZM68.5916 26.952C69.2476 27.32 69.5756 27.808 69.5756 28.416C69.5756 29.024 69.2476 29.516 68.5916 29.892C67.9436 30.26 67.0396 30.444 65.8796 30.444C64.7196 30.444 63.8116 30.26 63.1556 29.892C62.5076 29.516 62.1836 29.024 62.1836 28.416C62.1836 27.808 62.5076 27.32 63.1556 26.952C63.8036 26.584 64.7076 26.4 65.8676 26.4C67.0356 26.4 67.9436 26.584 68.5916 26.952ZM67.6556 29.196C68.0956 29.004 68.3156 28.744 68.3156 28.416C68.3156 28.088 68.0996 27.828 67.6676 27.636C67.2356 27.444 66.6356 27.348 65.8676 27.348C65.1076 27.348 64.5116 27.444 64.0796 27.636C63.6476 27.828 63.4316 28.088 63.4316 28.416C63.4316 28.744 63.6476 29.004 64.0796 29.196C64.5116 29.388 65.1076 29.484 65.8676 29.484C66.6196 29.484 67.2156 29.388 67.6556 29.196ZM70.7036 31.188V32.184H61.0436V31.188H70.7036ZM69.5996 34.98C69.5996 35.596 69.2716 36.076 68.6156 36.42C67.9596 36.772 67.0476 36.948 65.8796 36.948C64.7116 36.948 63.7996 36.772 63.1436 36.42C62.4956 36.076 62.1716 35.596 62.1716 34.98C62.1716 34.38 62.4956 33.904 63.1436 33.552C63.7996 33.2 64.7076 33.024 65.8676 33.024C67.0436 33.024 67.9596 33.2 68.6156 33.552C69.2716 33.896 69.5996 34.372 69.5996 34.98ZM67.6676 35.712C68.1076 35.544 68.3276 35.304 68.3276 34.992C68.3276 34.68 68.1076 34.44 67.6676 34.272C67.2276 34.096 66.6276 34.008 65.8676 34.008C65.1236 34.008 64.5316 34.096 64.0916 34.272C63.6516 34.44 63.4316 34.68 63.4316 34.992C63.4316 35.304 63.6476 35.544 64.0796 35.712C64.5196 35.872 65.1156 35.952 65.8676 35.952C66.6356 35.952 67.2356 35.872 67.6676 35.712ZM77.0184 32.544C77.0184 33.192 76.7824 33.736 76.3104 34.176C75.8384 34.608 75.2264 34.824 74.4744 34.824C73.7144 34.824 73.0944 34.612 72.6144 34.188C72.1424 33.756 71.9064 33.208 71.9064 32.544C71.9064 31.896 72.1424 31.356 72.6144 30.924C73.0944 30.484 73.7144 30.264 74.4744 30.264C75.2264 30.264 75.8384 30.48 76.3104 30.912C76.7824 31.336 77.0184 31.88 77.0184 32.544ZM75.4464 33.468C75.6864 33.228 75.8064 32.92 75.8064 32.544C75.8064 32.168 75.6784 31.864 75.4224 31.632C75.1744 31.392 74.8584 31.272 74.4744 31.272C74.0824 31.272 73.7624 31.392 73.5144 31.632C73.2664 31.864 73.1424 32.168 73.1424 32.544C73.1424 32.92 73.2664 33.228 73.5144 33.468C73.7624 33.7 74.0824 33.816 74.4744 33.816C74.8824 33.816 75.2064 33.7 75.4464 33.468ZM77.5584 29.748H71.3424V28.752H77.5584V29.748ZM72.8544 27.888V26.88H76.0944V27.888H72.8544ZM79.7304 26.256V30.648H81.3864V31.68H79.7304V36.948H78.4944V26.256H79.7304ZM87.6652 32.904L87.6892 31.92H89.3812V29.472H87.6892L87.6652 28.476H89.3812V26.256H90.6172V36.948H89.3812V32.904H87.6652ZM82.6372 33.552C82.1572 32.864 81.9172 31.952 81.9172 30.816C81.9172 29.68 82.1572 28.768 82.6372 28.08C83.1252 27.392 83.7812 27.048 84.6052 27.048C85.4292 27.048 86.0852 27.392 86.5732 28.08C87.0612 28.768 87.3052 29.684 87.3052 30.828C87.3052 31.956 87.0612 32.864 86.5732 33.552C86.0852 34.24 85.4292 34.584 84.6052 34.584C83.7812 34.584 83.1252 34.24 82.6372 33.552ZM85.6972 32.844C85.9772 32.34 86.1172 31.664 86.1172 30.816C86.1172 29.968 85.9772 29.296 85.6972 28.8C85.4252 28.296 85.0612 28.044 84.6052 28.044C84.1572 28.044 83.7972 28.296 83.5252 28.8C83.2532 29.296 83.1172 29.968 83.1172 30.816C83.1172 31.664 83.2532 32.34 83.5252 32.844C83.7972 33.348 84.1572 33.6 84.6052 33.6C85.0612 33.6 85.4252 33.348 85.6972 32.844ZM100.636 33.576L99.9164 34.464C99.5324 34.224 99.1444 33.852 98.7524 33.348C98.3684 32.836 98.1084 32.336 97.9724 31.848C97.8524 32.368 97.5924 32.904 97.1924 33.456C96.7924 34 96.3564 34.416 95.8844 34.704L95.1164 33.876C96.6284 32.876 97.3844 31.34 97.3844 29.268V28.476H95.5004V27.48H100.336V28.476H98.5844V29.232C98.5844 30.264 98.7684 31.156 99.1364 31.908C99.5124 32.66 100.012 33.216 100.636 33.576ZM102.232 36.444H101.08V31.08H99.6164V30.06H101.08V26.472H102.232V36.444ZM104.356 36.948H103.18V26.256H104.356V36.948ZM105.859 27.96V26.94H111.487V27.96H109.351V27.984C109.351 28.728 109.587 29.384 110.059 29.952C110.539 30.512 111.111 30.904 111.775 31.128L111.103 32.112C110.631 31.92 110.171 31.624 109.723 31.224C109.275 30.824 108.939 30.384 108.715 29.904C108.563 30.416 108.243 30.908 107.755 31.38C107.267 31.852 106.743 32.192 106.183 32.4L105.463 31.452C106.239 31.156 106.871 30.704 107.359 30.096C107.847 29.488 108.091 28.796 108.091 28.02V27.96H105.859ZM107.059 33.084H114.043V36.96H112.807V34.056H107.059V33.084ZM115.603 29.868H114.031V32.52H112.795V26.256H114.031V28.848H115.603V29.868ZM123.19 33.528L123.286 34.476C121.47 34.708 119.138 34.832 116.29 34.848L116.098 33.828C117.362 33.828 118.322 33.82 118.978 33.804V31.74H116.974V27.24H122.302V28.236H118.21V30.744H122.35V31.74H120.202V33.756C121.466 33.716 122.462 33.64 123.19 33.528ZM125.05 26.256V36.948H123.814V26.256H125.05ZM135.289 32.16H134.065V29.82H132.517V28.824H134.065V26.256H135.289V32.16ZM131.245 27.552C131.773 28.032 132.037 28.644 132.037 29.388C132.037 30.132 131.773 30.732 131.245 31.188C130.725 31.636 130.073 31.86 129.289 31.86C128.521 31.86 127.873 31.632 127.345 31.176C126.825 30.72 126.565 30.124 126.565 29.388C126.565 28.652 126.825 28.044 127.345 27.564C127.873 27.076 128.521 26.832 129.289 26.832C130.065 26.832 130.717 27.072 131.245 27.552ZM130.405 30.48C130.693 30.184 130.837 29.816 130.837 29.376C130.837 28.936 130.697 28.572 130.417 28.284C130.137 27.996 129.761 27.852 129.289 27.852C128.841 27.852 128.473 28 128.185 28.296C127.905 28.592 127.765 28.952 127.765 29.376C127.765 29.824 127.905 30.192 128.185 30.48C128.473 30.768 128.841 30.912 129.289 30.912C129.745 30.912 130.117 30.768 130.405 30.48ZM136.297 36.024L135.625 36.912C135.249 36.744 134.865 36.472 134.473 36.096C134.089 35.728 133.833 35.356 133.705 34.98C133.609 35.364 133.365 35.756 132.973 36.156C132.581 36.564 132.169 36.876 131.737 37.092L131.029 36.264C131.661 35.976 132.161 35.568 132.529 35.04C132.905 34.512 133.093 33.912 133.093 33.24V32.724H134.293V33.228C134.293 33.884 134.473 34.46 134.833 34.956C135.201 35.452 135.689 35.808 136.297 36.024ZM130.921 36.036C130.705 35.924 130.489 35.768 130.273 35.568C130.057 35.36 129.897 35.148 129.793 34.932C129.657 35.356 129.397 35.756 129.013 36.132C128.637 36.508 128.205 36.804 127.717 37.02L127.033 36.192C127.633 35.936 128.133 35.556 128.533 35.052C128.933 34.54 129.133 33.96 129.133 33.312V32.784H130.333V33.252C130.333 33.748 130.473 34.164 130.753 34.5C131.033 34.836 131.349 35.06 131.701 35.172L130.921 36.036ZM146.536 32.016H136.876V31.02H146.536V32.016ZM145.276 36.816H138.124V32.736H139.36V33.828H144.052V32.712H145.276V36.816ZM144.052 35.832V34.788H139.36V35.832H144.052ZM146.104 29.4L145.564 30.372C144.764 30.244 143.984 29.968 143.224 29.544C142.464 29.112 141.96 28.612 141.712 28.044C141.464 28.612 140.972 29.104 140.236 29.52C139.5 29.936 138.708 30.216 137.86 30.36L137.332 29.388C137.94 29.324 138.52 29.18 139.072 28.956C139.632 28.724 140.104 28.404 140.488 27.996C140.88 27.58 141.076 27.124 141.076 26.628V26.304H142.36V26.628C142.36 27.124 142.568 27.588 142.984 28.02C143.408 28.444 143.9 28.772 144.46 29.004C145.028 29.236 145.576 29.368 146.104 29.4ZM156.018 36.948H154.794V26.256H156.018V36.948ZM153.81 32.844L153.954 33.852C153.338 34.004 152.542 34.128 151.566 34.224C150.59 34.32 149.734 34.372 148.998 34.38H147.882V27.36H149.094V33.3C149.774 33.324 150.574 33.288 151.494 33.192C152.414 33.096 153.186 32.98 153.81 32.844ZM167.541 31.38H165.933V36.948H164.709V26.256H165.933V30.348H167.541V31.38ZM163.713 32.964L163.869 33.972C162.709 34.212 161.153 34.332 159.201 34.332H158.073V27.252H162.933V28.26H159.285V33.3C161.021 33.332 162.497 33.22 163.713 32.964ZM168.504 35.628V34.332H169.824V35.628H168.504Z" fill="white"/>
<path d="M212.5 42.5C213.001 45.5086 215.833 48.3333 217.5 49C211.1 49 207 46.8333 206 45.5L201 47L201.5 32H212V34V36V36.5C212 37.5 212 39.5 212.5 42.5Z" fill="#0078FF"/>
</svg>
