<svg width="218" height="49" viewBox="0 0 218 49" fill="none" xmlns="http://www.w3.org/2000/svg">
<rect width="214" height="49" rx="20" fill="#0078FF"/>
<path opacity="0.9" d="M26.236 14.82H24.664V17.256H23.428V11.256H24.664V13.788H26.236V14.82ZM21.688 11.94C21.656 13.34 21.208 14.496 20.344 15.408C19.488 16.312 18.332 16.948 16.876 17.316L16.252 16.344C17.26 16.152 18.156 15.76 18.94 15.168C19.724 14.568 20.188 13.832 20.332 12.96H16.78V11.94H21.688ZM24.664 21.816H17.824V17.784H24.664V21.816ZM23.428 20.844V18.756H19.06V20.844H23.428ZM35.0468 11.256V15.432H36.6548V16.464H35.0468V21.948H33.8108V11.256H35.0468ZM33.1388 18.408L32.4068 19.332C31.9188 19.012 31.4188 18.552 30.9068 17.952C30.3948 17.344 30.0468 16.76 29.8628 16.2C29.6788 16.832 29.3428 17.456 28.8548 18.072C28.3748 18.688 27.8388 19.172 27.2468 19.524L26.4908 18.624C27.3388 18.072 28.0028 17.372 28.4828 16.524C28.9708 15.676 29.2148 14.748 29.2148 13.74V12.18H30.4748V13.668C30.4748 14.668 30.7148 15.58 31.1948 16.404C31.6828 17.228 32.3308 17.896 33.1388 18.408ZM43.2336 13.8H37.0416V12.864H43.2336V13.8ZM42.6336 15.888C42.6336 16.384 42.4056 16.792 41.9496 17.112C41.5016 17.432 40.9016 17.592 40.1496 17.592C39.3896 17.592 38.7816 17.432 38.3256 17.112C37.8696 16.792 37.6416 16.384 37.6416 15.888C37.6416 15.384 37.8696 14.972 38.3256 14.652C38.7816 14.332 39.3896 14.172 40.1496 14.172C40.9016 14.172 41.5016 14.332 41.9496 14.652C42.4056 14.972 42.6336 15.384 42.6336 15.888ZM41.0856 16.476C41.3496 16.324 41.4816 16.128 41.4816 15.888C41.4816 15.648 41.3496 15.452 41.0856 15.3C40.8216 15.14 40.5096 15.06 40.1496 15.06C39.7896 15.06 39.4736 15.14 39.2016 15.3C38.9296 15.452 38.7936 15.648 38.7936 15.888C38.7936 16.128 38.9296 16.324 39.2016 16.476C39.4736 16.62 39.7896 16.692 40.1496 16.692C40.5096 16.692 40.8216 16.62 41.0856 16.476ZM38.5896 12.252V11.304H41.7216V12.252H38.5896ZM47.0016 14.976H45.4296V17.4H44.1936V11.256H45.4296V13.944H47.0016V14.976ZM45.4296 21.852H38.5776V17.964H39.8136V18.948H44.1936V17.94H45.4296V21.852ZM44.1936 20.88V19.932H39.8136V20.88H44.1936ZM56.2684 21.948H55.0444V11.256H56.2684V21.948ZM54.0604 17.844L54.2044 18.852C53.5884 19.004 52.7924 19.128 51.8164 19.224C50.8404 19.32 49.9844 19.372 49.2484 19.38H48.1324V12.36H49.3444V18.3C50.0244 18.324 50.8244 18.288 51.7444 18.192C52.6644 18.096 53.4364 17.98 54.0604 17.844ZM67.7913 16.38H66.1833V21.948H64.9593V11.256H66.1833V15.348H67.7913V16.38ZM63.9633 17.964L64.1193 18.972C62.9593 19.212 61.4033 19.332 59.4513 19.332H58.3232V12.252H63.1833V13.26H59.5353V18.3C61.2713 18.332 62.7473 18.22 63.9633 17.964ZM68.7541 20.628V19.332H70.0741V20.628H68.7541ZM82.1988 12.54V15.168H83.3508V11.472H84.5148V21.444H83.3508V16.188H82.1988V19.092H77.9268V12.54H82.1988ZM86.5908 21.948H85.4028V11.256H86.5908V21.948ZM81.0468 18.132V13.512H79.0908V18.132H81.0468ZM93.7096 14.088C93.7096 14.784 93.4536 15.352 92.9416 15.792C92.4296 16.224 91.7776 16.44 90.9856 16.44C90.2096 16.44 89.5616 16.228 89.0416 15.804C88.5216 15.372 88.2616 14.8 88.2616 14.088C88.2616 13.376 88.5176 12.792 89.0296 12.336C89.5496 11.872 90.2016 11.64 90.9856 11.64C91.7696 11.64 92.4176 11.868 92.9296 12.324C93.4496 12.78 93.7096 13.368 93.7096 14.088ZM92.4976 14.076C92.4976 13.668 92.3576 13.332 92.0776 13.068C91.8056 12.796 91.4416 12.66 90.9856 12.66C90.5696 12.66 90.2136 12.8 89.9176 13.08C89.6216 13.352 89.4736 13.684 89.4736 14.076C89.4736 14.468 89.6176 14.792 89.9056 15.048C90.1936 15.296 90.5536 15.42 90.9856 15.42C91.4336 15.42 91.7976 15.292 92.0776 15.036C92.3576 14.772 92.4976 14.452 92.4976 14.076ZM97.1176 21.864H89.8096V19.068H95.5456V18.192H89.7616V17.196H96.7696V19.98H91.0456V20.892H97.1176V21.864ZM96.7576 16.644H95.5336V11.256H96.7576V16.644ZM108.004 16.752H98.3444V15.768H108.004V16.752ZM107.116 21.876H99.5804V19.236H105.484V18.492H99.5204V17.52H106.72V20.136H100.804V20.904H107.116V21.876ZM103.192 11.316C104.36 11.316 105.272 11.492 105.928 11.844C106.584 12.188 106.912 12.648 106.912 13.224C106.912 13.8 106.584 14.26 105.928 14.604C105.272 14.948 104.36 15.12 103.192 15.12C102.032 15.12 101.124 14.948 100.468 14.604C99.8204 14.26 99.4964 13.8 99.4964 13.224C99.4964 12.648 99.8204 12.188 100.468 11.844C101.124 11.492 102.032 11.316 103.192 11.316ZM104.992 12.528C104.56 12.352 103.96 12.264 103.192 12.264C102.424 12.264 101.824 12.352 101.392 12.528C100.96 12.696 100.744 12.928 100.744 13.224C100.744 13.512 100.96 13.74 101.392 13.908C101.824 14.076 102.424 14.16 103.192 14.16C103.96 14.16 104.56 14.076 104.992 13.908C105.432 13.74 105.652 13.512 105.652 13.224C105.652 12.928 105.432 12.696 104.992 12.528ZM120.328 17.412H117.304V19.608H121.54V20.592H111.88V19.608H116.08V17.412H113.092V12.024H114.316V13.74H119.104V12.012H120.328V17.412ZM119.104 16.428V14.712H114.316V16.428H119.104ZM131.262 21.948H130.086V16.536H128.946V21.432H127.794V11.472H128.946V15.504H130.086V11.256H131.262V21.948ZM127.11 17.76L127.278 18.756C126.438 18.964 125.286 19.076 123.822 19.092H122.766V12.528H123.99V18.072C125.358 18.072 126.398 17.968 127.11 17.76ZM141.405 12.684H138.153C138.257 13.308 138.685 13.852 139.437 14.316C140.189 14.78 140.993 15.056 141.849 15.144L141.297 16.116C140.545 16.004 139.789 15.732 139.029 15.3C138.269 14.86 137.753 14.396 137.481 13.908C137.225 14.42 136.725 14.896 135.981 15.336C135.237 15.768 134.465 16.044 133.665 16.164L133.077 15.192C133.957 15.104 134.777 14.824 135.537 14.352C136.297 13.872 136.729 13.316 136.833 12.684H133.533V11.688H141.405V12.684ZM138.069 21.936H136.845V18.132H132.645V17.148H142.305V18.132H138.069V21.936ZM151.836 21.948H150.612V11.256H151.836V21.948ZM149.544 18.552L148.812 19.476C148.332 19.164 147.852 18.716 147.372 18.132C146.892 17.54 146.556 16.96 146.364 16.392C146.188 17.024 145.856 17.648 145.368 18.264C144.888 18.872 144.352 19.356 143.76 19.716L143.004 18.816C143.844 18.264 144.504 17.564 144.984 16.716C145.472 15.86 145.716 14.932 145.716 13.932V12.18H146.988V13.86C146.988 14.868 147.212 15.776 147.66 16.584C148.116 17.392 148.744 18.048 149.544 18.552ZM159.315 13.956V12.96H160.983V11.256H162.207V19.008H160.983V16.32H159.315V15.312H160.983V13.956H159.315ZM162.435 21.636H155.235V18.336H156.471V20.652H162.435V21.636ZM158.763 17.124H153.879V12.18H158.763V17.124ZM157.527 16.176V13.14H155.103V16.176H157.527ZM23.02 34.38H20.044V27.252H21.112V29.88H21.928V27.24H23.02V34.38ZM19.468 34.38H16.468V27.252H17.56V29.88H18.364V27.24H19.468V34.38ZM21.928 33.396V30.864H21.112V33.396H21.928ZM18.364 33.384V30.864H17.56V33.384H18.364ZM26.332 31.32H24.952V36.948H23.788V26.256H24.952V30.288H26.332V31.32ZM36.4028 33.216H26.7428V32.22H36.4028V33.216ZM35.3828 31.356H28.0148V28.548H33.8708V27.588H27.9788V26.64H35.1068V29.436H29.2508V30.42H35.3828V31.356ZM35.2748 36.648H27.9788V33.816H29.2148V35.664H35.2748V36.648ZM49.086 36.948H47.862V26.256H49.086V36.948ZM46.794 33.552L46.062 34.476C45.582 34.164 45.102 33.716 44.622 33.132C44.142 32.54 43.806 31.96 43.614 31.392C43.438 32.024 43.106 32.648 42.618 33.264C42.138 33.872 41.602 34.356 41.01 34.716L40.254 33.816C41.094 33.264 41.754 32.564 42.234 31.716C42.722 30.86 42.966 29.932 42.966 28.932V27.18H44.238V28.86C44.238 29.868 44.462 30.776 44.91 31.584C45.366 32.392 45.994 33.048 46.794 33.552ZM56.4088 29.088C56.4088 29.784 56.1528 30.352 55.6408 30.792C55.1288 31.224 54.4768 31.44 53.6848 31.44C52.9088 31.44 52.2608 31.228 51.7408 30.804C51.2208 30.372 50.9608 29.8 50.9608 29.088C50.9608 28.376 51.2168 27.792 51.7288 27.336C52.2488 26.872 52.9008 26.64 53.6848 26.64C54.4688 26.64 55.1168 26.868 55.6288 27.324C56.1488 27.78 56.4088 28.368 56.4088 29.088ZM55.1968 29.076C55.1968 28.668 55.0568 28.332 54.7768 28.068C54.5048 27.796 54.1408 27.66 53.6848 27.66C53.2688 27.66 52.9128 27.8 52.6168 28.08C52.3208 28.352 52.1728 28.684 52.1728 29.076C52.1728 29.468 52.3168 29.792 52.6048 30.048C52.8928 30.296 53.2528 30.42 53.6848 30.42C54.1328 30.42 54.4968 30.292 54.7768 30.036C55.0568 29.772 55.1968 29.452 55.1968 29.076ZM59.8168 36.864H52.5088V34.068H58.2448V33.192H52.4608V32.196H59.4688V34.98H53.7448V35.892H59.8168V36.864ZM59.4568 31.644H58.2328V26.256H59.4568V31.644ZM73.1959 36.948H72.0199V31.536H70.8799V36.432H69.7279V26.472H70.8799V30.504H72.0199V26.256H73.1959V36.948ZM69.0439 32.76L69.2119 33.756C68.3719 33.964 67.2199 34.076 65.7559 34.092H64.6999V27.528H65.9239V33.072C67.2919 33.072 68.3319 32.968 69.0439 32.76ZM81.5148 36.444H80.3508V31.416H79.2828C79.2268 32.368 79.0068 33.144 78.6228 33.744C78.2388 34.336 77.6988 34.632 77.0028 34.632C76.4908 34.632 76.0548 34.456 75.6948 34.104C75.3428 33.752 75.0868 33.304 74.9268 32.76C74.7748 32.208 74.6988 31.58 74.6988 30.876C74.6988 29.796 74.8908 28.904 75.2748 28.2C75.6668 27.496 76.2428 27.144 77.0028 27.144C77.6988 27.144 78.2388 27.448 78.6228 28.056C79.0148 28.656 79.2348 29.436 79.2828 30.396H80.3508V26.46H81.5148V36.444ZM83.5908 36.948H82.4148V26.256H83.5908V36.948ZM77.8548 32.832C78.0468 32.344 78.1428 31.696 78.1428 30.888C78.1428 30.08 78.0468 29.432 77.8548 28.944C77.6628 28.448 77.3828 28.2 77.0148 28.2C76.6468 28.2 76.3668 28.448 76.1748 28.944C75.9828 29.432 75.8868 30.08 75.8868 30.888C75.8868 31.688 75.9828 32.332 76.1748 32.82C76.3668 33.308 76.6468 33.552 77.0148 33.552C77.3828 33.552 77.6628 33.312 77.8548 32.832ZM94.6419 32.184L94.7499 33.108C93.0219 33.34 90.7779 33.472 88.0179 33.504L87.8379 32.496C89.0779 32.496 90.0139 32.488 90.6459 32.472V31.896C90.0779 31.824 89.6219 31.664 89.2779 31.416C88.9339 31.16 88.7619 30.84 88.7619 30.456C88.7619 30 88.9939 29.636 89.4579 29.364C89.9219 29.092 90.5179 28.956 91.2459 28.956C91.9739 28.956 92.5699 29.092 93.0339 29.364C93.5059 29.636 93.7419 30 93.7419 30.456C93.7419 30.84 93.5699 31.16 93.2259 31.416C92.8819 31.664 92.4299 31.824 91.8699 31.896V32.412C93.1259 32.348 94.0499 32.272 94.6419 32.184ZM96.5019 26.256V29.544H98.0379V30.576H96.5019V33.396H95.2779V26.256H96.5019ZM89.3499 33.948H96.5019V36.984H95.2779V34.944H89.3499V33.948ZM94.2699 28.692H88.2459V27.756H94.2699V28.692ZM89.7819 27.288V26.352H92.7699V27.288H89.7819ZM92.5419 30.456C92.5419 30.056 92.1099 29.856 91.2459 29.856C90.8459 29.856 90.5299 29.908 90.2979 30.012C90.0659 30.116 89.9499 30.264 89.9499 30.456C89.9499 30.648 90.0659 30.796 90.2979 30.9C90.5379 31.004 90.8539 31.056 91.2459 31.056C91.6459 31.056 91.9619 31.004 92.1939 30.9C92.4259 30.788 92.5419 30.64 92.5419 30.456ZM107.293 34.008H106.069V26.256H107.293V34.008ZM107.545 36.636H100.225V33.276H101.449V35.652H107.545V36.636ZM103.525 27.78C104.037 28.268 104.293 28.896 104.293 29.664C104.293 30.432 104.037 31.06 103.525 31.548C103.021 32.036 102.365 32.28 101.557 32.28C100.741 32.28 100.077 32.036 99.5647 31.548C99.0527 31.06 98.7967 30.436 98.7967 29.676C98.7967 28.908 99.0527 28.28 99.5647 27.792C100.077 27.296 100.741 27.048 101.557 27.048C102.365 27.048 103.021 27.292 103.525 27.78ZM103.069 29.664C103.069 29.192 102.933 28.808 102.661 28.512C102.389 28.216 102.021 28.068 101.557 28.068C101.109 28.068 100.741 28.22 100.453 28.524C100.173 28.82 100.033 29.2 100.033 29.664C100.033 30.112 100.173 30.488 100.453 30.792C100.741 31.088 101.109 31.236 101.557 31.236C102.013 31.236 102.377 31.088 102.649 30.792C102.929 30.488 103.069 30.112 103.069 29.664ZM114.472 32.544C114.472 33.192 114.236 33.736 113.764 34.176C113.292 34.608 112.68 34.824 111.928 34.824C111.168 34.824 110.548 34.612 110.068 34.188C109.596 33.756 109.36 33.208 109.36 32.544C109.36 31.896 109.596 31.356 110.068 30.924C110.548 30.484 111.168 30.264 111.928 30.264C112.68 30.264 113.292 30.48 113.764 30.912C114.236 31.336 114.472 31.88 114.472 32.544ZM112.9 33.468C113.14 33.228 113.26 32.92 113.26 32.544C113.26 32.168 113.132 31.864 112.876 31.632C112.628 31.392 112.312 31.272 111.928 31.272C111.536 31.272 111.216 31.392 110.968 31.632C110.72 31.864 110.596 32.168 110.596 32.544C110.596 32.92 110.72 33.228 110.968 33.468C111.216 33.7 111.536 33.816 111.928 33.816C112.336 33.816 112.66 33.7 112.9 33.468ZM115.012 29.748H108.796V28.752H115.012V29.748ZM110.308 27.888V26.88H113.548V27.888H110.308ZM117.184 26.256V30.648H118.84V31.68H117.184V36.948H115.948V26.256H117.184ZM127.734 31.992H124.686V34.608H128.922V35.592H119.262V34.608H123.462V31.992H120.522V27.072H127.674V28.068H121.758V30.996H127.734V31.992ZM138.273 31.056H135.069V31.908H139.305V32.892H129.645V31.908H133.845V31.056H130.917V28.368H136.773V27.564H130.881V26.616H138.009V29.256H132.153V30.096H138.273V31.056ZM130.773 33.624H138.045V36.984H136.821V34.608H130.773V33.624ZM148.772 32.544C148.772 33.192 148.536 33.736 148.064 34.176C147.592 34.608 146.98 34.824 146.228 34.824C145.468 34.824 144.848 34.612 144.368 34.188C143.896 33.756 143.66 33.208 143.66 32.544C143.66 31.896 143.896 31.356 144.368 30.924C144.848 30.484 145.468 30.264 146.228 30.264C146.98 30.264 147.592 30.48 148.064 30.912C148.536 31.336 148.772 31.88 148.772 32.544ZM147.2 33.468C147.44 33.228 147.56 32.92 147.56 32.544C147.56 32.168 147.432 31.864 147.176 31.632C146.928 31.392 146.612 31.272 146.228 31.272C145.836 31.272 145.516 31.392 145.268 31.632C145.02 31.864 144.896 32.168 144.896 32.544C144.896 32.92 145.02 33.228 145.268 33.468C145.516 33.7 145.836 33.816 146.228 33.816C146.636 33.816 146.96 33.7 147.2 33.468ZM149.312 29.748H143.096V28.752H149.312V29.748ZM144.608 27.888V26.88H147.848V27.888H144.608ZM151.484 26.256V30.648H153.14V31.68H151.484V36.948H150.248V26.256H151.484ZM162.563 32.316H161.387V26.256H162.563V32.316ZM160.523 32.244H159.359V30.06H158.039V29.028H159.359V26.448H160.523V32.244ZM158.111 27.072C158.071 28.464 157.719 29.588 157.055 30.444C156.391 31.3 155.471 31.976 154.295 32.472L153.551 31.524C154.447 31.26 155.195 30.816 155.795 30.192C156.395 29.568 156.735 28.864 156.815 28.08H154.043V27.072H158.111ZM162.719 37.008C162.367 36.84 161.999 36.556 161.615 36.156C161.239 35.764 160.987 35.396 160.859 35.052C160.755 35.436 160.523 35.832 160.163 36.24C159.811 36.648 159.419 36.952 158.987 37.152L158.183 36.312C158.815 36.016 159.315 35.6 159.683 35.064C160.059 34.528 160.247 33.932 160.247 33.276V32.772H161.447V33.264C161.447 33.896 161.647 34.48 162.047 35.016C162.455 35.552 162.935 35.92 163.487 36.12L162.719 37.008ZM158.111 35.94C157.903 35.836 157.687 35.676 157.463 35.46C157.239 35.244 157.079 35.028 156.983 34.812C156.847 35.22 156.575 35.64 156.167 36.072C155.767 36.512 155.351 36.828 154.919 37.02L154.187 36.156C154.795 35.868 155.299 35.464 155.699 34.944C156.099 34.416 156.299 33.836 156.299 33.204V32.772H157.487V33.144C157.487 33.616 157.627 34.032 157.907 34.392C158.187 34.744 158.531 34.996 158.939 35.148L158.111 35.94ZM173.606 32.016H163.946V31.02H173.606V32.016ZM172.346 36.816H165.194V32.736H166.43V33.828H171.122V32.712H172.346V36.816ZM171.122 35.832V34.788H166.43V35.832H171.122ZM173.174 29.4L172.634 30.372C171.834 30.244 171.054 29.968 170.294 29.544C169.534 29.112 169.03 28.612 168.782 28.044C168.534 28.612 168.042 29.104 167.306 29.52C166.57 29.936 165.778 30.216 164.93 30.36L164.402 29.388C165.01 29.324 165.59 29.18 166.142 28.956C166.702 28.724 167.174 28.404 167.558 27.996C167.95 27.58 168.146 27.124 168.146 26.628V26.304H169.43V26.628C169.43 27.124 169.638 27.588 170.054 28.02C170.478 28.444 170.97 28.772 171.53 29.004C172.098 29.236 172.646 29.368 173.174 29.4ZM183.089 36.948H181.865V26.256H183.089V36.948ZM180.881 32.844L181.025 33.852C180.409 34.004 179.613 34.128 178.637 34.224C177.661 34.32 176.805 34.372 176.069 34.38H174.953V27.36H176.165V33.3C176.845 33.324 177.645 33.288 178.565 33.192C179.485 33.096 180.257 32.98 180.881 32.844ZM194.612 31.38H193.004V36.948H191.78V26.256H193.004V30.348H194.612V31.38ZM190.784 32.964L190.94 33.972C189.78 34.212 188.224 34.332 186.272 34.332H185.144V27.252H190.004V28.26H186.356V33.3C188.092 33.332 189.568 33.22 190.784 32.964ZM195.574 35.628V34.332H196.894V35.628H195.574Z" fill="white"/>
<path d="M212.5 42.5C213.001 45.5086 215.833 48.3333 217.5 49C211.1 49 207 46.8333 206 45.5L201 47L201.5 32H212V34V36V36.5C212 37.5 212 39.5 212.5 42.5Z" fill="#0078FF"/>
</svg>
