<svg width="112" height="33" viewBox="0 0 112 33" fill="none" xmlns="http://www.w3.org/2000/svg">
<rect width="107" height="33" rx="16.5" fill="#0078FF"/>
<path opacity="0.9" d="M33.108 10.632V14.188H34.956V15.392H33.108V19.676H31.68V10.632H33.108ZM33.472 22.728H25.114V18.766H26.556V21.566H33.472V22.728ZM30.084 14.636C30.084 15.5227 29.7853 16.2553 29.188 16.834C28.6 17.4033 27.83 17.688 26.878 17.688C25.926 17.688 25.1513 17.4033 24.554 16.834C23.966 16.2647 23.672 15.532 23.672 14.636C23.672 13.7493 23.966 13.0167 24.554 12.438C25.1513 11.8593 25.926 11.57 26.878 11.57C27.83 11.57 28.6 11.8593 29.188 12.438C29.7853 13.0073 30.084 13.74 30.084 14.636ZM28.642 14.636C28.642 14.076 28.4833 13.628 28.166 13.292C27.8487 12.9467 27.4193 12.774 26.878 12.774C26.3553 12.774 25.926 12.9513 25.59 13.306C25.2633 13.6513 25.1 14.0947 25.1 14.636C25.1 15.1587 25.2633 15.5973 25.59 15.952C25.926 16.2973 26.3553 16.47 26.878 16.47C27.41 16.47 27.8347 16.2973 28.152 15.952C28.4787 15.5973 28.642 15.1587 28.642 14.636ZM45.8793 20.67C45.8793 21.4167 45.5059 22.0047 44.7593 22.434C44.0126 22.8727 42.9673 23.092 41.6233 23.092C40.2979 23.092 39.2619 22.8727 38.5153 22.434C37.7686 22.0047 37.3953 21.4167 37.3953 20.67C37.3953 19.914 37.7639 19.3167 38.5013 18.878C39.2479 18.4393 40.2886 18.22 41.6233 18.22C42.9673 18.22 44.0126 18.4393 44.7593 18.878C45.5059 19.3167 45.8793 19.914 45.8793 20.67ZM41.6233 19.382C40.7459 19.382 40.0646 19.494 39.5793 19.718C39.1033 19.9327 38.8653 20.25 38.8653 20.67C38.8653 21.0713 39.1079 21.384 39.5933 21.608C40.0786 21.832 40.7553 21.944 41.6233 21.944C42.5099 21.944 43.1959 21.832 43.6813 21.608C44.1759 21.384 44.4233 21.0713 44.4233 20.67C44.4233 20.25 44.1806 19.9327 43.6953 19.718C43.2099 19.494 42.5193 19.382 41.6233 19.382ZM45.7813 18.108H44.3533V15.21H41.1053V14.076H44.3533V13.096H41.1053V11.976H44.3533V10.632H45.7813V18.108ZM42.3233 15.952L42.5613 17.1C41.4599 17.408 39.7613 17.5713 37.4653 17.59H36.1773V11.36H37.6053V16.386C39.6399 16.386 41.2126 16.2413 42.3233 15.952ZM54.1706 17.968C54.1706 18.724 53.8952 19.3587 53.3446 19.872C52.7939 20.376 52.0799 20.628 51.2026 20.628C50.3159 20.628 49.5926 20.3807 49.0326 19.886C48.4819 19.382 48.2066 18.7427 48.2066 17.968C48.2066 17.212 48.4819 16.582 49.0326 16.078C49.5926 15.5647 50.3159 15.308 51.2026 15.308C52.0799 15.308 52.7939 15.56 53.3446 16.064C53.8952 16.5587 54.1706 17.1933 54.1706 17.968ZM52.3366 19.046C52.6166 18.766 52.7566 18.4067 52.7566 17.968C52.7566 17.5293 52.6072 17.1747 52.3086 16.904C52.0192 16.624 51.6506 16.484 51.2026 16.484C50.7452 16.484 50.3719 16.624 50.0826 16.904C49.7932 17.1747 49.6486 17.5293 49.6486 17.968C49.6486 18.4067 49.7932 18.766 50.0826 19.046C50.3719 19.3167 50.7452 19.452 51.2026 19.452C51.6786 19.452 52.0566 19.3167 52.3366 19.046ZM54.8006 14.706H47.5486V13.544H54.8006V14.706ZM49.3126 12.536V11.36H53.0926V12.536H49.3126ZM57.3346 10.632V15.756H59.2666V16.96H57.3346V23.106H55.8926V10.632H57.3346ZM70.2738 23.106H68.9018V10.632H70.2738V23.106ZM67.8098 22.518H66.4658V16.176H64.6738V14.986H66.4658V10.884H67.8098V22.518ZM66.0738 19.018L65.2478 20.012C64.7718 19.7133 64.3005 19.2653 63.8338 18.668C63.3765 18.0613 63.0592 17.45 62.8818 16.834C62.7325 17.5153 62.4292 18.1733 61.9718 18.808C61.5145 19.4427 60.9825 19.9513 60.3758 20.334L59.5078 19.354C60.3012 18.8313 60.9452 18.0893 61.4398 17.128C61.9345 16.1573 62.1818 15.056 62.1818 13.824V11.864H63.5678V13.81C63.5678 14.9673 63.7965 16.0127 64.2538 16.946C64.7205 17.87 65.3272 18.5607 66.0738 19.018ZM82.0371 14.678C82.0371 15.63 81.6218 16.4047 80.7911 17.002C79.9605 17.59 78.8638 17.884 77.5011 17.884C76.1571 17.884 75.0698 17.59 74.2391 17.002C73.4085 16.4047 72.9931 15.63 72.9931 14.678C72.9931 13.7353 73.4085 12.9653 74.2391 12.368C75.0698 11.7707 76.1571 11.472 77.5011 11.472C78.8638 11.472 79.9605 11.7707 80.7911 12.368C81.6218 12.9653 82.0371 13.7353 82.0371 14.678ZM79.7271 16.148C80.2871 15.7747 80.5671 15.2847 80.5671 14.678C80.5671 14.0713 80.2871 13.586 79.7271 13.222C79.1671 12.8487 78.4251 12.662 77.5011 12.662C76.5865 12.662 75.8491 12.8487 75.2891 13.222C74.7291 13.586 74.4491 14.0713 74.4491 14.678C74.4491 15.2847 74.7291 15.7747 75.2891 16.148C75.8491 16.512 76.5865 16.694 77.5011 16.694C78.4251 16.694 79.1671 16.512 79.7271 16.148ZM83.1431 21.524H71.8731V20.376H74.4771V18.206L75.9331 18.192V20.376H79.0411V18.192L80.4831 18.206V20.376H83.1431V21.524Z" fill="white"/>
<path d="M106.5 26.5C107.001 29.5086 109.833 32.3333 111.5 33C105.1 33 101 30.8333 100 29.5L95 31L95.5 16H106V18V20V20.5C106 21.5 106 23.5 106.5 26.5Z" fill="#0078FF"/>
</svg>
