<svg width="8" height="14" viewBox="0 0 8 14" fill="none" xmlns="http://www.w3.org/2000/svg">
<path fill-rule="evenodd" clip-rule="evenodd" d="M1.77802 5.27816C1.55189 5.27816 1.32796 5.3227 1.11904 5.40924C0.910118 5.49578 0.720286 5.62262 0.560384 5.78252C0.400481 5.94243 0.27364 6.13226 0.187101 6.34118C0.100562 6.5501 0.0560217 6.77403 0.0560217 7.00016C0.0560217 7.2263 0.100562 7.45022 0.187101 7.65914C0.27364 7.86807 0.400481 8.0579 0.560384 8.2178C0.720286 8.3777 0.910118 8.50454 1.11904 8.59108C1.32796 8.67762 1.55189 8.72216 1.77802 8.72216H3.50002V7.03483C3.49975 7.01172 3.49975 6.98861 3.50002 6.9655V5.27816H1.77802ZM3.50002 4.27816H1.77802C1.32123 4.27816 0.883148 4.0967 0.560148 3.7737C0.237148 3.4507 0.0556882 3.01262 0.0556882 2.55583C0.0556882 2.09904 0.237148 1.66096 0.560148 1.33796C0.883148 1.01496 1.32123 0.833496 1.77802 0.833496H3.50002V4.27816ZM4.50002 0.833496V4.27816H6.22202C6.67294 4.26929 7.1024 4.08393 7.41817 3.7619C7.73393 3.43986 7.9108 3.00684 7.9108 2.55583C7.9108 2.10482 7.73393 1.67179 7.41817 1.34976C7.1024 1.02773 6.67294 0.842368 6.22202 0.833496H4.50002ZM6.22202 5.2775C5.77002 5.27744 5.33611 5.45511 5.01395 5.77216C4.69178 6.08921 4.5072 6.52021 4.50002 6.97216V7.0275C4.50554 7.36683 4.6112 7.69696 4.80374 7.97644C4.99628 8.25591 5.26711 8.47226 5.58221 8.59831C5.89731 8.72436 6.24263 8.7545 6.5748 8.68492C6.90697 8.61535 7.21118 8.44918 7.44921 8.20727C7.68724 7.96537 7.84849 7.65852 7.9127 7.32528C7.9769 6.99203 7.9412 6.64724 7.81009 6.33421C7.67897 6.02118 7.45828 5.75388 7.17574 5.56587C6.8932 5.37787 6.5614 5.27754 6.22202 5.2775ZM1.77802 9.72216C1.43728 9.72203 1.10416 9.82295 0.820778 10.0122C0.537399 10.2014 0.316497 10.4704 0.18601 10.7851C0.0555233 11.0999 0.0213134 11.4463 0.0877075 11.7805C0.154102 12.1147 0.318117 12.4217 0.55901 12.6627C0.799903 12.9037 1.10685 13.0678 1.44103 13.1343C1.77522 13.2009 2.12162 13.1668 2.43644 13.0364C2.75125 12.9061 3.02034 12.6853 3.20965 12.402C3.39897 12.1187 3.50002 11.7856 3.50002 11.4448V9.72216H1.77802Z" fill="black"/>
</svg>
