<svg width="14" height="14" viewBox="0 0 14 14" fill="none" xmlns="http://www.w3.org/2000/svg">
<path d="M7.00016 0.333496C6.12468 0.333496 5.25778 0.505935 4.44894 0.840966C3.6401 1.176 2.90517 1.66706 2.28612 2.28612C1.03587 3.53636 0.333496 5.23205 0.333496 7.00016C0.333496 9.94683 2.24683 12.4468 4.8935 13.3335C5.22683 13.3868 5.3335 13.1802 5.3335 13.0002V11.8735C3.48683 12.2735 3.0935 10.9802 3.0935 10.9802C2.78683 10.2068 2.3535 10.0002 2.3535 10.0002C1.74683 9.58683 2.40016 9.60016 2.40016 9.60016C3.06683 9.64683 3.42016 10.2868 3.42016 10.2868C4.00016 11.3002 4.98016 11.0002 5.36016 10.8402C5.42016 10.4068 5.5935 10.1135 5.78016 9.94683C4.30016 9.78016 2.74683 9.20683 2.74683 6.66683C2.74683 5.92683 3.00016 5.3335 3.4335 4.86016C3.36683 4.6935 3.1335 4.00016 3.50016 3.10016C3.50016 3.10016 4.06016 2.92016 5.3335 3.78016C5.86016 3.6335 6.4335 3.56016 7.00016 3.56016C7.56683 3.56016 8.14016 3.6335 8.66683 3.78016C9.94016 2.92016 10.5002 3.10016 10.5002 3.10016C10.8668 4.00016 10.6335 4.6935 10.5668 4.86016C11.0002 5.3335 11.2535 5.92683 11.2535 6.66683C11.2535 9.2135 9.6935 9.7735 8.20683 9.94016C8.44683 10.1468 8.66683 10.5535 8.66683 11.1735V13.0002C8.66683 13.1802 8.7735 13.3935 9.1135 13.3335C11.7602 12.4402 13.6668 9.94683 13.6668 7.00016C13.6668 6.12468 13.4944 5.25778 13.1594 4.44894C12.8243 3.6401 12.3333 2.90517 11.7142 2.28612C11.0952 1.66706 10.3602 1.176 9.55139 0.840966C8.74255 0.505935 7.87564 0.333496 7.00016 0.333496Z" fill="black"/>
</svg>
