<svg width="16" height="16" viewBox="0 0 16 16" fill="none" xmlns="http://www.w3.org/2000/svg">
<path d="M7.99982 2C11.8665 2 15.0005 4.44267 15.0005 7.45667C15.0005 10.47 11.8665 12.9127 8.00049 12.9127C7.61554 12.9129 7.23097 12.8884 6.84915 12.8393L3.91049 14.7613C3.57649 14.938 3.45849 14.9187 3.59582 14.486L4.19049 12.034C2.27049 11.0607 1.00049 9.374 1.00049 7.45667C1.00049 4.44333 4.13382 2 8.00049 2M11.9392 7.37333L12.9192 6.424C12.9757 6.36527 13.0073 6.28689 13.0072 6.20536C13.0071 6.12384 12.9753 6.04553 12.9186 5.98694C12.8619 5.92835 12.7847 5.89405 12.7032 5.89126C12.6218 5.88847 12.5424 5.91742 12.4818 5.972L11.1965 7.216V6.188C11.1965 6.10455 11.1633 6.02451 11.1043 5.9655C11.0453 5.90649 10.9653 5.87333 10.8818 5.87333C10.7984 5.87333 10.7183 5.90649 10.6593 5.9655C10.6003 6.02451 10.5672 6.10455 10.5672 6.188V7.89267C10.5554 7.9413 10.5554 7.99204 10.5672 8.04067V9C10.5672 9.08345 10.6003 9.16349 10.6593 9.2225C10.7183 9.28151 10.7984 9.31467 10.8818 9.31467C10.9653 9.31467 11.0453 9.28151 11.1043 9.2225C11.1633 9.16349 11.1965 9.08345 11.1965 9V8.09133L11.4812 7.816L12.4332 9.17133C12.4569 9.20517 12.4871 9.23399 12.522 9.25616C12.5569 9.27833 12.5959 9.2934 12.6366 9.30052C12.6773 9.30764 12.7191 9.30666 12.7594 9.29765C12.7998 9.28864 12.838 9.27177 12.8718 9.248C12.9057 9.22423 12.9345 9.19403 12.9566 9.15912C12.9788 9.12421 12.9939 9.08528 13.001 9.04455C13.0081 9.00381 13.0072 8.96207 12.9981 8.92172C12.9891 8.88136 12.9723 8.84317 12.9485 8.80933L11.9392 7.37333ZM9.96716 8.656H8.99382V6.198C8.9901 6.11714 8.95535 6.04082 8.89681 5.98492C8.83827 5.92901 8.76044 5.89781 8.67949 5.89781C8.59854 5.89781 8.52071 5.92901 8.46216 5.98492C8.40362 6.04082 8.36888 6.11714 8.36516 6.198V8.97067C8.36516 9.144 8.50515 9.28533 8.67915 9.28533H9.96716C10.0506 9.28533 10.1306 9.25218 10.1897 9.19317C10.2487 9.13416 10.2818 9.05412 10.2818 8.97067C10.2818 8.88721 10.2487 8.80718 10.1897 8.74816C10.1306 8.68915 10.0506 8.656 9.96716 8.656ZM6.06249 7.92867L6.52649 6.79L6.95182 7.928L6.06249 7.92867ZM7.74449 8.25333L7.74582 8.24267C7.74566 8.16339 7.7154 8.08714 7.66115 8.02933L6.96382 6.16267C6.93459 6.07371 6.87891 5.9958 6.80421 5.93933C6.72952 5.88286 6.63938 5.85054 6.54582 5.84667C6.45158 5.84625 6.35945 5.87454 6.28168 5.92778C6.20392 5.98101 6.1442 6.05666 6.11049 6.14467L5.00249 8.86133C4.97093 8.9386 4.97135 9.02524 5.00367 9.10219C5.03599 9.17914 5.09756 9.24011 5.17482 9.27167C5.25209 9.30323 5.33873 9.3028 5.41568 9.27048C5.49263 9.23816 5.55359 9.1766 5.58516 9.09933L5.80649 8.55733H7.18649L7.38515 9.09067C7.39871 9.13053 7.42012 9.16727 7.44813 9.19871C7.47614 9.23015 7.51018 9.25565 7.54822 9.27369C7.58626 9.29174 7.62754 9.30196 7.66961 9.30377C7.71168 9.30557 7.75368 9.29891 7.79313 9.28418C7.83257 9.26946 7.86866 9.24697 7.89926 9.21804C7.92986 9.18911 7.95433 9.15434 7.97125 9.11578C7.98816 9.07721 7.99716 9.03565 7.99772 8.99355C7.99827 8.95145 7.99037 8.90966 7.97449 8.87067L7.74449 8.25333ZM5.52915 6.20133C5.52916 6.11799 5.49609 6.03806 5.43723 5.97907C5.37836 5.92007 5.29849 5.88684 5.21516 5.88667H3.05182C2.96837 5.88667 2.88833 5.91982 2.82932 5.97883C2.77031 6.03784 2.73716 6.11788 2.73716 6.20133C2.73716 6.28479 2.77031 6.36483 2.82932 6.42384C2.88833 6.48285 2.96837 6.516 3.05182 6.516H3.82516V9.00667C3.82516 9.09012 3.85831 9.17016 3.91732 9.22917C3.97633 9.28818 4.05637 9.32133 4.13982 9.32133C4.22328 9.32133 4.30331 9.28818 4.36232 9.22917C4.42134 9.17016 4.45449 9.09012 4.45449 9.00667V6.516H5.21449C5.29794 6.516 5.37798 6.48285 5.43699 6.42384C5.496 6.36483 5.52915 6.28479 5.52915 6.20133Z" fill="black"/>
</svg>
