<svg width="16" height="16" viewBox="0 0 16 16" fill="none" xmlns="http://www.w3.org/2000/svg">
<path d="M2.66683 13.3332C2.30016 13.3332 1.98638 13.2027 1.7255 12.9418C1.46461 12.6809 1.33394 12.3669 1.3335 11.9998V3.99984C1.3335 3.63317 1.46416 3.31939 1.7255 3.0585C1.98683 2.79761 2.30061 2.66695 2.66683 2.6665H13.3335C13.7002 2.6665 14.0142 2.79717 14.2755 3.0585C14.5368 3.31984 14.6673 3.63361 14.6668 3.99984V11.9998C14.6668 12.3665 14.5364 12.6805 14.2755 12.9418C14.0146 13.2032 13.7006 13.3336 13.3335 13.3332H2.66683ZM8.00016 8.6665L13.3335 5.33317V3.99984L8.00016 7.33317L2.66683 3.99984V5.33317L8.00016 8.6665Z" fill="black"/>
</svg>
