<svg width="16" height="16" viewBox="0 0 16 16" fill="none" xmlns="http://www.w3.org/2000/svg">
<path d="M8.00001 11.84C8.26523 11.84 8.51958 11.7346 8.70712 11.5471C8.89465 11.3596 9.00001 11.1052 9.00001 10.84C9.00001 10.5748 8.89465 10.3204 8.70712 10.1329C8.51958 9.94536 8.26523 9.84001 8.00001 9.84001C7.73479 9.84001 7.48044 9.94536 7.2929 10.1329C7.10537 10.3204 7.00001 10.5748 7.00001 10.84C7.00001 11.1052 7.10537 11.3596 7.2929 11.5471C7.48044 11.7346 7.73479 11.84 8.00001 11.84ZM1.59901 3.89801C1.65706 3.92872 1.7085 3.97058 1.75037 4.02118C1.79225 4.07178 1.82374 4.13014 1.84306 4.19291C1.86238 4.25569 1.86913 4.32166 1.86295 4.38705C1.85676 4.45244 1.83775 4.51597 1.80701 4.57401C1.27525 5.5804 0.998175 6.70176 1.00001 7.84001C1.00001 9.02001 1.29201 10.132 1.80701 11.106C1.86907 11.2232 1.88202 11.3603 1.84301 11.4871C1.804 11.6139 1.71623 11.7199 1.59901 11.782C1.48178 11.8441 1.3447 11.857 1.21793 11.818C1.09116 11.779 0.985069 11.6912 0.923008 11.574C0.315032 10.4234 -0.00186755 9.14137 8.27941e-06 7.84001C8.27941e-06 6.49301 0.334008 5.22101 0.923008 4.10601C0.953726 4.04795 0.995581 3.99652 1.04618 3.95464C1.09678 3.91277 1.15514 3.88127 1.21792 3.86195C1.28069 3.84264 1.34666 3.83588 1.41205 3.84207C1.47744 3.84825 1.54097 3.86726 1.59901 3.89801ZM14.401 3.89801C14.459 3.86726 14.5226 3.84825 14.588 3.84207C14.6534 3.83588 14.7193 3.84264 14.7821 3.86195C14.8449 3.88127 14.9032 3.91277 14.9538 3.95464C15.0044 3.99652 15.0463 4.04795 15.077 4.10601C15.685 5.25661 16.0019 6.53864 16 7.84001C16.0019 9.14138 15.685 10.4234 15.077 11.574C15.0149 11.6912 14.9089 11.779 14.7821 11.818C14.6553 11.857 14.5182 11.8441 14.401 11.782C14.2838 11.7199 14.196 11.6139 14.157 11.4871C14.118 11.3603 14.1309 11.2232 14.193 11.106C14.7248 10.0996 15.0018 8.97825 15 7.84001C15 6.66001 14.708 5.54801 14.193 4.57401C14.1623 4.51597 14.1433 4.45244 14.1371 4.38705C14.1309 4.32166 14.1376 4.25569 14.157 4.19291C14.1763 4.13014 14.2078 4.07178 14.2496 4.02118C14.2915 3.97058 14.343 3.92872 14.401 3.89801ZM3.05701 5.37401C3.11823 5.39788 3.17414 5.43358 3.22155 5.47907C3.26896 5.52457 3.30694 5.57896 3.33332 5.63914C3.3597 5.69932 3.37395 5.76411 3.37527 5.82981C3.37659 5.8955 3.36495 5.96081 3.34101 6.02201C3.11495 6.60143 2.99929 7.21804 3.00001 7.84001C3.00001 8.48201 3.12001 9.09501 3.34001 9.65801C3.36791 9.71981 3.38296 9.78664 3.38422 9.85444C3.38549 9.92223 3.37295 9.98958 3.34737 10.0524C3.32179 10.1152 3.2837 10.1721 3.23542 10.2197C3.18715 10.2674 3.12969 10.3047 3.06655 10.3294C3.0034 10.3541 2.93589 10.3657 2.86811 10.3635C2.80034 10.3613 2.73372 10.3453 2.67231 10.3166C2.6109 10.2878 2.55597 10.2469 2.51088 10.1963C2.46579 10.1456 2.43147 10.0863 2.41001 10.022C2.13847 9.3266 1.99942 8.58654 2.00001 7.84001C2.00001 7.07101 2.14501 6.33501 2.41001 5.65801C2.45823 5.53461 2.55344 5.4354 2.67475 5.38215C2.79606 5.3289 2.93354 5.32597 3.05701 5.37401ZM12.943 5.37401C13.0042 5.35007 13.0695 5.33842 13.1352 5.33974C13.2009 5.34106 13.2657 5.35532 13.3259 5.38169C13.3861 5.40807 13.4404 5.44605 13.4859 5.49346C13.5314 5.54087 13.5671 5.59679 13.591 5.65801C13.855 6.33501 14 7.07101 14 7.84001C14 8.60901 13.855 9.34501 13.59 10.022C13.5373 10.1388 13.4416 10.2309 13.3229 10.2793C13.2042 10.3277 13.0714 10.3286 12.9521 10.2819C12.8327 10.2351 12.7358 10.1443 12.6815 10.0282C12.6271 9.91215 12.6194 9.77961 12.66 9.65801C12.88 9.09501 13 8.48201 13 7.84001C13 7.19801 12.88 6.58501 12.66 6.02201C12.6116 5.89855 12.6142 5.76092 12.6673 5.6394C12.7204 5.51787 12.8196 5.42241 12.943 5.37401Z" fill="black"/>
<path d="M10.5 1.3335C10.8978 1.3335 11.2794 1.49153 11.5607 1.77284C11.842 2.05414 12 2.43567 12 2.8335V13.1668C12 13.5647 11.842 13.9462 11.5607 14.2275C11.2794 14.5088 10.8978 14.6668 10.5 14.6668H5.5C5.10218 14.6668 4.72064 14.5088 4.43934 14.2275C4.15804 13.9462 4 13.5647 4 13.1668V2.8335C4 2.43567 4.15804 2.05414 4.43934 1.77284C4.72064 1.49153 5.10218 1.3335 5.5 1.3335H10.5ZM8.83333 12.0002H7.16667C7.03406 12.0002 6.90688 12.0528 6.81311 12.1466C6.71935 12.2404 6.66667 12.3676 6.66667 12.5002C6.66667 12.6328 6.71935 12.7599 6.81311 12.8537C6.90688 12.9475 7.03406 13.0002 7.16667 13.0002H8.83333C8.96594 13.0002 9.09312 12.9475 9.18689 12.8537C9.28065 12.7599 9.33333 12.6328 9.33333 12.5002C9.33333 12.3676 9.28065 12.2404 9.18689 12.1466C9.09312 12.0528 8.96594 12.0002 8.83333 12.0002Z" fill="black"/>
</svg>
