<svg width="24" height="28" viewBox="0 0 24 28" fill="none" xmlns="http://www.w3.org/2000/svg">
<path d="M8.25 23.1429C8.66421 23.1429 9 22.7591 9 22.2857C9 21.8123 8.66421 21.4286 8.25 21.4286C7.83579 21.4286 7.5 21.8123 7.5 22.2857C7.5 22.7591 7.83579 23.1429 8.25 23.1429Z" stroke="black" stroke-width="2" stroke-linecap="round" stroke-linejoin="round"/>
<path d="M18.75 23.1429C19.1642 23.1429 19.5 22.7591 19.5 22.2857C19.5 21.8123 19.1642 21.4286 18.75 21.4286C18.3358 21.4286 18 21.8123 18 22.2857C18 22.7591 18.3358 23.1429 18.75 23.1429Z" stroke="black" stroke-width="2" stroke-linecap="round" stroke-linejoin="round"/>
<path d="M2.25 4.28577H5.25L7.5 18.8572H19.5" stroke="black" stroke-width="2" stroke-linecap="round" stroke-linejoin="round"/>
<path d="M7.5 15.4286H19.1925C19.2792 15.4287 19.3633 15.3944 19.4304 15.3316C19.4975 15.2688 19.5434 15.1813 19.5605 15.0841L20.9105 7.36986C20.9214 7.30765 20.92 7.24346 20.9066 7.18191C20.8931 7.12036 20.8679 7.063 20.8327 7.01395C20.7975 6.9649 20.7532 6.92539 20.703 6.89828C20.6528 6.87117 20.598 6.85713 20.5425 6.85718H6" stroke="black" stroke-width="2" stroke-linecap="round" stroke-linejoin="round"/>
</svg>
