<svg width="30" height="30" viewBox="0 0 30 30" fill="none" xmlns="http://www.w3.org/2000/svg">
<path d="M14.375 23.0012V20.4512C10.8263 20.2671 8 17.3204 8 13.7292C8 10.0175 11.0175 7 14.7292 7C18.4408 7 21.4583 10.0175 21.4583 13.7292C21.4583 17.2354 19.0217 20.7629 15.3879 22.5125L14.375 23.0012ZM14.7292 8.41667C11.7967 8.41667 9.41667 10.7967 9.41667 13.7292C9.41667 16.6617 11.7967 19.0417 14.7292 19.0417H15.7917V20.6708C18.37 19.0417 20.0417 16.3642 20.0417 13.7292C20.0417 10.7967 17.6617 8.41667 14.7292 8.41667ZM14.0208 16.5625H15.4375V17.9792H14.0208V16.5625ZM15.4375 15.5H14.0208C14.0208 13.1979 16.1458 13.375 16.1458 11.9583C16.1458 11.1792 15.5083 10.5417 14.7292 10.5417C13.95 10.5417 13.3125 11.1792 13.3125 11.9583H11.8958C11.8958 10.3929 13.1638 9.125 14.7292 9.125C16.2946 9.125 17.5625 10.3929 17.5625 11.9583C17.5625 13.7292 15.4375 13.9062 15.4375 15.5Z" fill="#141414"/>
</svg>
