<svg width="20" height="20" viewBox="0 0 20 20" fill="none" xmlns="http://www.w3.org/2000/svg">
<path d="M10.6058 3.07254C10.681 2.99299 10.7398 2.8994 10.7788 2.79712C10.8178 2.69485 10.8363 2.58589 10.8332 2.47647C10.8301 2.36706 10.8055 2.25932 10.7608 2.15941C10.716 2.05951 10.6521 1.96939 10.5725 1.89421C10.4929 1.81903 10.3994 1.76025 10.2971 1.72124C10.1948 1.68223 10.0859 1.66374 9.97643 1.66684C9.86702 1.66993 9.75928 1.69455 9.65937 1.73928C9.55947 1.78401 9.46935 1.84799 9.39417 1.92754L2.31084 9.42754C2.16456 9.58227 2.08305 9.78712 2.08305 10C2.08305 10.213 2.16456 10.4178 2.31084 10.5725L9.39417 18.0734C9.46886 18.1547 9.55895 18.2203 9.65922 18.2665C9.7595 18.3127 9.86795 18.3385 9.97828 18.3424C10.0886 18.3463 10.1986 18.3283 10.3019 18.2893C10.4052 18.2504 10.4997 18.1913 10.58 18.1155C10.6603 18.0397 10.7247 17.9487 10.7695 17.8478C10.8143 17.7469 10.8386 17.6381 10.841 17.5278C10.8434 17.4174 10.8239 17.3076 10.7835 17.2049C10.7431 17.1021 10.6827 17.0084 10.6058 16.9292L4.06251 10L10.6058 3.07254Z" fill="black"/>
</svg>
