<svg width="30" height="30" viewBox="0 0 30 30" fill="none" xmlns="http://www.w3.org/2000/svg">
<path d="M14.7905 22.6855C14.6879 22.8176 14.5938 22.9375 14.5096 23.0439C14.4253 22.9374 14.3311 22.8175 14.2284 22.6854C13.7711 22.0972 13.1467 21.2692 12.4783 20.311C11.1316 18.3804 9.64359 15.9729 8.95573 13.9434L8.95025 13.9272L8.94387 13.9114C8.73904 13.404 8.61821 12.847 8.6 12.255V12.2547V12.2543V12.2539V12.2535V12.253V12.2526V12.2522V12.2518V12.2513V12.2509V12.2505V12.2501V12.2497V12.2492V12.2488V12.2484V12.248V12.2475V12.2471V12.2467V12.2463V12.2459V12.2454V12.245V12.2446V12.2442V12.2438V12.2433V12.2429V12.2425V12.2421V12.2416V12.2412V12.2408V12.2404V12.24V12.2395V12.2391V12.2387V12.2383V12.2378V12.2374V12.237V12.2366V12.2362V12.2357V12.2353V12.2349V12.2345V12.234V12.2336V12.2332V12.2328V12.2324V12.2319V12.2315V12.2311V12.2307V12.2302V12.2298V12.2294V12.229V12.2286V12.2281V12.2277V12.2273V12.2269V12.2265V12.226V12.2256V12.2252V12.2248V12.2243V12.2239V12.2235V12.2231V12.2227V12.2222V12.2218V12.2214V12.221V12.2205V12.2201V12.2197V12.2193V12.2189V12.2184V12.218V12.2176V12.2172V12.2168V12.2163V12.2159V12.2155V12.2151V12.2146V12.2142V12.2138V12.2134V12.213V12.2125V12.2121V12.2117V12.2113V12.2108V12.2104V12.21V12.2096V12.2092V12.2087V12.2083V12.2079V12.2075V12.207V12.2066V12.2062V12.2058V12.2054V12.2049V12.2045V12.2041V12.2037V12.2032V12.2028V12.2024V12.202V12.2016V12.2011V12.2007V12.2003V12.1999V12.1995V12.199V12.1986V12.1982V12.1978V12.1973V12.1969V12.1965V12.1961V12.1957V12.1952V12.1948V12.1944V12.194V12.1935V12.1931V12.1927V12.1923V12.1919V12.1914V12.191V12.1906V12.1902V12.1897V12.1893V12.1889V12.1885V12.1881V12.1876V12.1872V12.1868V12.1864V12.186V12.1855V12.1851V12.1847V12.1843V12.1838V12.1834V12.183V12.1826V12.1822V12.1817V12.1813V12.1809V12.1805V12.18V12.1796V12.1792V12.1788V12.1784V12.1779V12.1775V12.1771V12.1767V12.1762V12.1758V12.1754V12.175V12.1746V12.1741V12.1737V12.1733V12.1729V12.1725V12.172V12.1716V12.1712V12.1708V12.1703V12.1699V12.1695V12.1691V12.1687V12.1682V12.1678V12.1674V12.167V12.1665V12.1661V12.1657V12.1653V12.1649V12.1644V12.164V12.1636V12.1632V12.1627V12.1623V12.1619V12.1615V12.1611V12.1606V12.1602V12.1598V12.1594V12.159V12.1585V12.1581V12.1577V12.1573V12.1568V12.1564V12.156V12.1556V12.1552V12.1547V12.1543V12.1539V12.1535V12.153V12.1526V12.1522V12.1518V12.1514V12.1509V12.1505V12.1501V12.1497V12.1493V12.1488V12.1484V12.148V12.1476V12.1471V12.1467V12.1463V12.1459V12.1455V12.145V12.1446V12.1442V12.1438V12.1433V12.1429V12.1425V12.1421V12.1417V12.1412V12.1408V12.1404V12.14V12.1395V12.1391V12.1387V12.1383V12.1379V12.1374V12.137V12.1366V12.1362V12.1357V12.1353V12.1349V12.1345V12.1341V12.1336V12.1332V12.1328V12.1324V12.132V12.1315V12.1311V12.1307V12.1303V12.1298V12.1294V12.129V12.1286V12.1282V12.1277V12.1273V12.1269V12.1265V12.126V12.1256V12.1252V12.1248V12.1244V12.1239V12.1235V12.1231V12.1227V12.1223V12.1218V12.1214V12.121V12.1206V12.1201V12.1197V12.1193V12.1189V12.1185V12.118V12.1176V12.1172V12.1168V12.1163V12.1159V12.1155V12.1151V12.1147V12.1142V12.1138V12.1134V12.113V12.1125V12.1121V12.1117V12.1113V12.1109V12.1104V12.11V12.1096V12.1092V12.1087V12.1083V12.1079V12.1075V12.1071V12.1066V12.1062V12.1058V12.1054V12.105V12.1045V12.1041V12.1037V12.1033V12.1028V12.1024V12.102V12.1016V12.1012V12.1007V12.1003V12.0999V12.0995V12.099V12.0986V12.0982V12.0978V12.0974V12.0969V12.0965V12.0961V12.0957V12.0952V12.0948V12.0944V12.094V12.0936V12.0931V12.0927V12.0923V12.0919V12.0915V12.091V12.0906V12.0902V12.0898V12.0893V12.0889V12.0885V12.0881V12.0877V12.0872V12.0868V12.0864V12.086V12.0855V12.0851V12.0847V12.0843V12.0839V12.0834V12.083V12.0826V12.0822V12.0817V12.0813V12.0809V12.0805V12.0801V12.0796V12.0792V12.0788V12.0784V12.078V12.0775V12.0771V12.0767V12.0763V12.0758V12.0754V12.075V12.0746V12.0742V12.0737V12.0733V12.0729V12.0725V12.072V12.0716V12.0712V12.0708V12.0704V12.0699V12.0695V12.0691V12.0687V12.0682V12.0678V12.0674V12.067V12.0666V12.0661V12.0657V12.0653V12.0649V12.0645V12.064V12.0636V12.0632V12.0628V12.0623V12.0619V12.0615V12.0611V12.0607V12.0602V12.0598V12.0594V12.059V12.0585V12.0581V12.0577V12.0573V12.0569V12.0564V12.056V12.0556V12.0552V12.0547V12.0543V12.0539V12.0535V12.0531V12.0526V12.0522V12.0518V12.0514V12.051V12.0505V12.0501V12.0497V12.0493V12.0488V12.0484V12.048C8.6 9.07329 11.2133 6.6 14.5096 6.6C17.8069 6.6 20.4171 9.07333 20.3999 12.0445H20.3999V12.048V12.0484V12.0488V12.0493V12.0497V12.0501V12.0505V12.051V12.0514V12.0518V12.0522V12.0526V12.0531V12.0535V12.0539V12.0543V12.0547V12.0552V12.0556V12.056V12.0564V12.0569V12.0573V12.0577V12.0581V12.0585V12.059V12.0594V12.0598V12.0602V12.0607V12.0611V12.0615V12.0619V12.0623V12.0628V12.0632V12.0636V12.064V12.0645V12.0649V12.0653V12.0657V12.0661V12.0666V12.067V12.0674V12.0678V12.0682V12.0687V12.0691V12.0695V12.0699V12.0704V12.0708V12.0712V12.0716V12.072V12.0725V12.0729V12.0733V12.0737V12.0742V12.0746V12.075V12.0754V12.0758V12.0763V12.0767V12.0771V12.0775V12.078V12.0784V12.0788V12.0792V12.0796V12.0801V12.0805V12.0809V12.0813V12.0817V12.0822V12.0826V12.083V12.0834V12.0839V12.0843V12.0847V12.0851V12.0855V12.086V12.0864V12.0868V12.0872V12.0877V12.0881V12.0885V12.0889V12.0893V12.0898V12.0902V12.0906V12.091V12.0915V12.0919V12.0923V12.0927V12.0931V12.0936V12.094V12.0944V12.0948V12.0952V12.0957V12.0961V12.0965V12.0969V12.0974V12.0978V12.0982V12.0986V12.099V12.0995V12.0999V12.1003V12.1007V12.1012V12.1016V12.102V12.1024V12.1028V12.1033V12.1037V12.1041V12.1045V12.105V12.1054V12.1058V12.1062V12.1066V12.1071V12.1075V12.1079V12.1083V12.1087V12.1092V12.1096V12.11V12.1104V12.1109V12.1113V12.1117V12.1121V12.1125V12.113V12.1134V12.1138V12.1142V12.1147V12.1151V12.1155V12.1159V12.1163V12.1168V12.1172V12.1176V12.118V12.1185V12.1189V12.1193V12.1197V12.1201V12.1206V12.121V12.1214V12.1218V12.1223V12.1227V12.1231V12.1235V12.1239V12.1244V12.1248V12.1252V12.1256V12.126V12.1265V12.1269V12.1273V12.1277V12.1282V12.1286V12.129V12.1294V12.1298V12.1303V12.1307V12.1311V12.1315V12.132V12.1324V12.1328V12.1332V12.1336V12.1341V12.1345V12.1349V12.1353V12.1357V12.1362V12.1366V12.137V12.1374V12.1379V12.1383V12.1387V12.1391V12.1395V12.14V12.1404V12.1408V12.1412V12.1417V12.1421V12.1425V12.1429V12.1433V12.1438V12.1442V12.1446V12.145V12.1455V12.1459V12.1463V12.1467V12.1471V12.1476V12.148V12.1484V12.1488V12.1493V12.1497V12.1501V12.1505V12.1509V12.1514V12.1518V12.1522V12.1526V12.153V12.1535V12.1539V12.1543V12.1547V12.1552V12.1556V12.156V12.1564V12.1568V12.1573V12.1577V12.1581V12.1585V12.159V12.1594V12.1598V12.1602V12.1606V12.1611V12.1615V12.1619V12.1623V12.1627V12.1632V12.1636V12.164V12.1644V12.1649V12.1653V12.1657V12.1661V12.1665V12.167V12.1674V12.1678V12.1682V12.1687V12.1691V12.1695V12.1699V12.1703V12.1708V12.1712V12.1716V12.172V12.1725V12.1729V12.1733V12.1737V12.1741V12.1746V12.175V12.1754V12.1758V12.1762V12.1767V12.1771V12.1775V12.1779V12.1784V12.1788V12.1792V12.1796V12.18V12.1805V12.1809V12.1813V12.1817V12.1822V12.1826V12.183V12.1834V12.1838V12.1843V12.1847V12.1851V12.1855V12.186V12.1864V12.1868V12.1872V12.1876V12.1881V12.1885V12.1889V12.1893V12.1897V12.1902V12.1906V12.191V12.1914V12.1919V12.1923V12.1927V12.1931V12.1935V12.194V12.1944V12.1948V12.1952V12.1957V12.1961V12.1965V12.1969V12.1973V12.1978V12.1982V12.1986V12.199V12.1995V12.1999V12.2003V12.2007V12.2011V12.2016V12.202V12.2024V12.2028V12.2032V12.2037V12.2041V12.2045V12.2049V12.2054V12.2058V12.2062V12.2066V12.207V12.2075V12.2079V12.2083V12.2087V12.2092V12.2096V12.21V12.2104V12.2108V12.2113V12.2117V12.2121V12.2125V12.213V12.2134V12.2138V12.2142V12.2146V12.2151V12.2155V12.2159V12.2163V12.2168V12.2172V12.2176V12.218V12.2184V12.2189V12.2193V12.2197V12.2201V12.2205V12.221V12.2214V12.2218V12.2222V12.2227V12.2231V12.2235V12.2239V12.2243V12.2248V12.2252V12.2256V12.226V12.2265V12.2269V12.2273V12.2277V12.2281V12.2286V12.229V12.2294V12.2298V12.2302V12.2307V12.2311V12.2315V12.2319V12.2324V12.2328V12.2332V12.2336V12.234V12.2345V12.2349V12.2353V12.2357V12.2362V12.2366V12.237V12.2374V12.2378V12.2383V12.2387V12.2391V12.2395V12.24V12.2404V12.2408V12.2412V12.2416V12.2421V12.2425V12.2429V12.2433V12.2438V12.2442V12.2446V12.245V12.2454V12.2459V12.2463V12.2467V12.2471V12.2475V12.248V12.2484V12.2488V12.2492V12.2497V12.2501V12.2505V12.2509V12.2513V12.2518V12.2522V12.2526V12.253V12.2535V12.2539V12.2543V12.2547V12.2548C20.3817 12.8273 20.2614 13.3865 20.0537 13.9173L20.0482 13.9314L20.0434 13.9457C19.3652 15.9741 17.8825 18.3809 16.5383 20.3114C15.8711 21.2695 15.2474 22.0974 14.7905 22.6855ZM11.9529 11.796C11.9529 13.1762 13.1357 14.214 14.5096 14.214C15.8836 14.214 17.0664 13.1762 17.0664 11.796C17.0664 10.4158 15.8836 9.378 14.5096 9.378C13.1357 9.378 11.9529 10.4158 11.9529 11.796Z" stroke="black" stroke-width="1.2"/>
</svg>
