<svg width="32" height="32" viewBox="0 0 32 32" fill="none" xmlns="http://www.w3.org/2000/svg">
<path d="M16 26.3333C15.7349 26.3331 15.4807 26.2276 15.2933 26.04L6.26666 16.9867C5.04515 15.7405 4.36095 14.065 4.36095 12.32C4.36095 10.575 5.04515 8.89952 6.26666 7.65333C7.50438 6.41574 9.18302 5.72047 10.9333 5.72047C12.6836 5.72047 14.3623 6.41574 15.6 7.65333L16 8L16.3733 7.62666C16.9853 7.008 17.7142 6.51727 18.5177 6.18306C19.3212 5.84885 20.1831 5.67785 21.0533 5.68C21.9226 5.6761 22.784 5.84501 23.5874 6.17691C24.3908 6.50881 25.1203 6.99707 25.7333 7.61333C26.9548 8.85952 27.639 10.535 27.639 12.28C27.639 14.025 26.9548 15.7005 25.7333 16.9467L16.7067 26C16.6173 26.1001 16.5086 26.1813 16.3872 26.2385C16.2658 26.2958 16.1341 26.328 16 26.3333ZM10.9467 7.66666C10.3411 7.66226 9.74066 7.77781 9.17999 8.00665C8.61932 8.2355 8.10952 8.57311 7.67999 9C6.81449 9.86954 6.32859 11.0465 6.32859 12.2733C6.32859 13.5002 6.81449 14.6771 7.67999 15.5467L16 23.92L24.3067 15.5733C24.7368 15.1436 25.0781 14.6334 25.3109 14.0717C25.5437 13.5101 25.6636 12.908 25.6636 12.3C25.6636 11.692 25.5437 11.0899 25.3109 10.5283C25.0781 9.96662 24.7368 9.45636 24.3067 9.02666C23.8805 8.59897 23.3732 8.26072 22.8145 8.03175C22.2559 7.80279 21.6571 7.68773 21.0533 7.69333C20.4478 7.68892 19.8473 7.80448 19.2867 8.03332C18.726 8.26217 18.2162 8.59977 17.7867 9.02666L16.7067 10.1067C16.5159 10.2877 16.263 10.3886 16 10.3886C15.737 10.3886 15.4841 10.2877 15.2933 10.1067L14.2133 9.02666C13.786 8.59496 13.2772 8.25243 12.7164 8.01897C12.1557 7.7855 11.5541 7.66575 10.9467 7.66666Z" fill="black"/>
</svg>
