<svg width="13" height="18" viewBox="0 0 13 18" fill="none" xmlns="http://www.w3.org/2000/svg">
<path d="M6.50964 0C2.92546 0 0 2.7 0 6.048C0 6.12 0 6.192 0 6.264C0.0193739 6.93 0.154991 7.56 0.387479 8.136C1.82115 12.366 6.50964 18 6.50964 18C6.50964 18 11.1981 12.366 12.6124 8.136C12.8449 7.542 12.9805 6.912 12.9999 6.264C12.9999 6.192 12.9999 6.12 12.9999 6.048C13.0193 2.7 10.0938 0 6.50964 0ZM6.50964 7.614C5.4247 7.614 4.55287 6.804 4.55287 5.796C4.55287 4.788 5.4247 3.978 6.50964 3.978C7.59458 3.978 8.4664 4.788 8.4664 5.796C8.4664 6.804 7.59458 7.614 6.50964 7.614Z" fill="white"/>
</svg>
