<svg width="30" height="30" viewBox="0 0 30 30" fill="none" xmlns="http://www.w3.org/2000/svg">
<path d="M15 30C23.2843 30 30 23.2843 30 15C30 6.71573 23.2843 0 15 0C6.71573 0 0 6.71573 0 15C0 23.2843 6.71573 30 15 30Z" fill="#7E7E7E"/>
<g clip-path="url(#clip0_5_772)">
<path d="M15.8567 6.66753C16.4648 6.6652 17.0729 6.67131 17.6808 6.68586L17.8425 6.6917C18.0292 6.69836 18.2133 6.7067 18.4358 6.7167C19.3225 6.75836 19.9275 6.89836 20.4583 7.1042C21.0083 7.31586 21.4717 7.60253 21.935 8.06586C22.3587 8.4822 22.6865 8.98582 22.8958 9.5417C23.1017 10.0725 23.2417 10.6784 23.2833 11.565C23.2933 11.7867 23.3017 11.9717 23.3083 12.1584L23.3133 12.32C23.3282 12.9277 23.3345 13.5355 23.3325 14.1434L23.3333 14.765V15.8567C23.3354 16.4648 23.329 17.0729 23.3142 17.6809L23.3092 17.8425C23.3025 18.0292 23.2942 18.2134 23.2842 18.4359C23.2425 19.3225 23.1008 19.9275 22.8958 20.4584C22.6872 21.0148 22.3593 21.5189 21.935 21.935C21.5183 22.3586 21.0144 22.6865 20.4583 22.8959C19.9275 23.1017 19.3225 23.2417 18.4358 23.2834C18.2133 23.2934 18.0292 23.3017 17.8425 23.3084L17.6808 23.3134C17.0729 23.3282 16.4648 23.3346 15.8567 23.3325L15.235 23.3334H14.1442C13.5361 23.3354 12.9279 23.329 12.32 23.3142L12.1583 23.3092C11.9605 23.302 11.7627 23.2937 11.565 23.2842C10.6783 23.2425 10.0733 23.1009 9.54168 22.8959C8.98558 22.687 8.48188 22.359 8.06585 21.935C7.64172 21.5186 7.31353 21.0147 7.10418 20.4584C6.89835 19.9275 6.75835 19.3225 6.71668 18.4359C6.7074 18.2381 6.69907 18.0403 6.69168 17.8425L6.68751 17.6809C6.67215 17.0729 6.6652 16.4648 6.66668 15.8567V14.1434C6.66435 13.5355 6.67047 12.9277 6.68501 12.32L6.69085 12.1584C6.69751 11.9717 6.70585 11.7867 6.71585 11.565C6.75751 10.6775 6.89751 10.0734 7.10335 9.5417C7.31282 8.98555 7.64165 8.48207 8.06668 8.0667C8.48242 7.64232 8.98581 7.31384 9.54168 7.1042C10.0733 6.89836 10.6775 6.75836 11.565 6.7167L12.1583 6.6917L12.32 6.68753C12.9277 6.67217 13.5355 6.66523 14.1433 6.6667L15.8567 6.66753ZM15 10.8342C14.4479 10.8264 13.8998 10.9284 13.3875 11.1343C12.8752 11.3401 12.4089 11.6458 12.0157 12.0334C11.6225 12.4211 11.3103 12.883 11.0973 13.3923C10.8842 13.9017 10.7744 14.4483 10.7744 15.0004C10.7744 15.5526 10.8842 16.0992 11.0973 16.6086C11.3103 17.1179 11.6225 17.5798 12.0157 17.9675C12.4089 18.3551 12.8752 18.6608 13.3875 18.8666C13.8998 19.0725 14.4479 19.1745 15 19.1667C16.1051 19.1667 17.1649 18.7277 17.9463 17.9463C18.7277 17.1649 19.1667 16.1051 19.1667 15C19.1667 13.895 18.7277 12.8352 17.9463 12.0538C17.1649 11.2723 16.1051 10.8342 15 10.8342ZM15 12.5009C15.3321 12.4947 15.6621 12.5549 15.9707 12.6777C16.2793 12.8005 16.5603 12.9836 16.7973 13.2163C17.0344 13.449 17.2227 13.7266 17.3512 14.0328C17.4798 14.3391 17.546 14.6679 17.5461 15C17.5461 15.3322 17.48 15.661 17.3515 15.9673C17.2231 16.2736 17.0349 16.5512 16.7979 16.784C16.561 17.0167 16.28 17.1999 15.9714 17.3229C15.6629 17.4458 15.3329 17.506 15.0008 17.5C14.3378 17.5 13.7019 17.2366 13.2331 16.7678C12.7642 16.299 12.5008 15.6631 12.5008 15C12.5008 14.337 12.7642 13.7011 13.2331 13.2323C13.7019 12.7634 14.3378 12.5 15.0008 12.5L15 12.5009ZM19.375 9.5842C19.1062 9.59496 18.8519 9.70932 18.6655 9.90334C18.4791 10.0974 18.375 10.356 18.375 10.625C18.375 10.8941 18.4791 11.1527 18.6655 11.3467C18.8519 11.5407 19.1062 11.6551 19.375 11.6659C19.6513 11.6659 19.9162 11.5561 20.1116 11.3608C20.3069 11.1654 20.4167 10.9005 20.4167 10.6242C20.4167 10.3479 20.3069 10.083 20.1116 9.88763C19.9162 9.69228 19.6513 9.58253 19.375 9.58253V9.5842Z" fill="#111111"/>
</g>
<defs>
<clipPath id="clip0_5_772">
<rect width="20" height="20" fill="white" transform="translate(5 5)"/>
</clipPath>
</defs>
</svg>
