<svg width="30" height="30" viewBox="0 0 30 30" fill="none" xmlns="http://www.w3.org/2000/svg">
<path d="M9.66667 23.6667C9.20833 23.6667 8.81583 23.5033 8.48917 23.1767C8.1625 22.85 7.99945 22.4578 8 22V12C8 11.5417 8.16333 11.1492 8.49 10.8225C8.81667 10.4958 9.20889 10.3328 9.66667 10.3333H11.3333C11.3333 9.41667 11.6597 8.63194 12.3125 7.97917C12.9653 7.32639 13.75 7 14.6667 7C15.5833 7 16.3681 7.32639 17.0208 7.97917C17.6736 8.63194 18 9.41667 18 10.3333H19.6667C20.125 10.3333 20.5175 10.4967 20.8442 10.8233C21.1708 11.15 21.3339 11.5422 21.3333 12V22C21.3333 22.4583 21.17 22.8508 20.8433 23.1775C20.5167 23.5042 20.1244 23.6672 19.6667 23.6667H9.66667ZM9.66667 22H19.6667V12H18V13.6667C18 13.9028 17.92 14.1008 17.76 14.2608C17.6 14.4208 17.4022 14.5006 17.1667 14.5C16.9306 14.5 16.7325 14.42 16.5725 14.26C16.4125 14.1 16.3328 13.9022 16.3333 13.6667V12H13V13.6667C13 13.9028 12.92 14.1008 12.76 14.2608C12.6 14.4208 12.4022 14.5006 12.1667 14.5C11.9306 14.5 11.7325 14.42 11.5725 14.26C11.4125 14.1 11.3328 13.9022 11.3333 13.6667V12H9.66667V22ZM13 10.3333H16.3333C16.3333 9.875 16.17 9.4825 15.8433 9.15583C15.5167 8.82917 15.1244 8.66611 14.6667 8.66667C14.2083 8.66667 13.8158 8.83 13.4892 9.15667C13.1625 9.48333 12.9994 9.87556 13 10.3333Z" fill="black"/>
</svg>
