<svg width="30" height="30" viewBox="0 0 30 30" fill="none" xmlns="http://www.w3.org/2000/svg">
<path d="M15 30C23.2843 30 30 23.2843 30 15C30 6.71573 23.2843 0 15 0C6.71573 0 0 6.71573 0 15C0 23.2843 6.71573 30 15 30Z" fill="#7E7E7E"/>
<g clip-path="url(#clip0_5_780)">
<path d="M11.3167 24.0002C18.873 24.0002 23.0053 17.8023 23.0053 12.4276C23.0053 12.2516 23.0016 12.0764 22.9936 11.9019C23.7977 11.3259 24.4916 10.6127 25.0428 9.79572C24.3067 10.1197 23.5146 10.3378 22.6837 10.4361C23.5319 9.93258 24.183 9.13599 24.4902 8.18645C23.6838 8.66009 22.8016 8.99398 21.8816 9.17373C21.1319 8.38314 20.0647 7.88867 18.8829 7.88867C16.6142 7.88867 14.7745 9.71016 14.7745 11.9554C14.7745 12.2746 14.8106 12.585 14.8811 12.8829C11.4668 12.7128 8.43916 11.0943 6.41294 8.63327C6.048 9.25398 5.85605 9.95943 5.85668 10.6776C5.85668 12.0887 6.58192 13.3344 7.68483 14.0632C7.03244 14.0435 6.39438 13.869 5.82429 13.5545C5.82368 13.5716 5.82368 13.5882 5.82368 13.6065C5.82368 15.5762 7.23972 17.2208 9.11947 17.5935C8.76643 17.6887 8.40212 17.7368 8.03621 17.7366C7.77196 17.7366 7.51443 17.7109 7.26414 17.6633C7.78714 19.2794 9.30371 20.4554 11.1018 20.4883C9.69571 21.5794 7.9245 22.2293 5.99945 22.2293C5.67198 22.2296 5.34477 22.2107 5.01953 22.1729C6.83766 23.3267 8.99652 24 11.3169 24" fill="#111111"/>
</g>
<defs>
<clipPath id="clip0_5_780">
<rect width="27" height="18" fill="white" transform="translate(1 6)"/>
</clipPath>
</defs>
</svg>
