<svg width="30" height="30" viewBox="0 0 30 30" fill="none" xmlns="http://www.w3.org/2000/svg">
<path d="M15 30C23.2843 30 30 23.2843 30 15C30 6.71573 23.2843 0 15 0C6.71573 0 0 6.71573 0 15C0 23.2843 6.71573 30 15 30Z" fill="#7E7E7E"/>
<path d="M15.4296 21.7766L11.3317 21.7018C10.0048 21.6757 8.67473 21.7278 7.37393 21.4577C5.39512 21.0541 5.25493 19.0751 5.10824 17.4151C4.90612 15.0815 4.98436 12.7054 5.3658 10.3912C5.58113 9.09267 6.42855 8.31784 7.73905 8.23352C12.163 7.92752 16.6163 7.96379 21.0304 8.10655C21.4966 8.11963 21.966 8.19116 22.4257 8.27258C24.6948 8.66969 24.7501 10.9123 24.8972 12.8001C25.0439 14.7074 24.9819 16.6245 24.7016 18.5189C24.4766 20.0873 24.0463 21.4026 22.23 21.5296C19.9544 21.6956 17.7311 21.8293 15.4491 21.7867C15.4492 21.7766 15.4361 21.7766 15.4296 21.7766ZM13.0204 17.8058C14.7352 16.8227 16.4174 15.8561 18.1224 14.8797C16.4044 13.8966 14.7254 12.93 13.0204 11.9535V17.8058Z" fill="#111111"/>
</svg>
