<svg width="169" height="32" viewBox="0 0 169 32" fill="none" xmlns="http://www.w3.org/2000/svg">
<path d="M96.6479 3.61646V28.9317H100.579V14.9423H104.655V11.9065H100.579V3.61646H96.6479Z" fill="white"/>
<path d="M83.7491 3.30078C78.4009 3.30078 74.0659 8.87063 74.0659 15.752C74.0659 22.6333 78.4009 28.2032 83.7491 28.2032C89.0973 28.2032 93.4322 22.6252 93.4322 15.752C93.4322 8.87872 89.0973 3.30078 83.7491 3.30078ZM83.7491 25.6854C80.5645 25.6854 77.9895 21.2409 77.9895 15.752C77.9895 10.2631 80.5645 5.81854 83.7491 5.81854C86.9336 5.81854 89.5087 10.2631 89.5087 15.752C89.5087 21.2409 86.926 25.6854 83.7491 25.6854Z" fill="white"/>
<path d="M70.7973 14.1491H58.1734V12.0442H69.1364V9.63981H46.8599V6.39344H69.1364V3.98901H42.9287V9.51028C42.9287 10.9108 44.102 12.0442 45.5495 12.0442H53.8841V14.141H41.2603V16.675H70.7973V14.141V14.1491Z" fill="white"/>
<path d="M42.7461 23.8882C42.7461 27.2479 48.6962 29.96 56.0404 29.96C63.3847 29.96 69.3347 27.2398 69.3347 23.8882C69.3347 20.5366 63.3847 17.8164 56.0404 17.8164C48.6962 17.8164 42.7461 20.5366 42.7461 23.8882ZM65.1674 23.8234C65.1674 25.8797 61.0763 27.5555 56.0404 27.5555C51.0046 27.5555 46.9058 25.8797 46.9058 23.8234C46.9058 21.7671 50.997 20.0913 56.0404 20.0913C61.0839 20.0913 65.1674 21.7671 65.1674 23.8234Z" fill="white"/>
<path d="M164.955 14.0356H169V11.6312H164.955V8.96771H169V6.56329H164.955V3.61646H161.023V18.804H164.955V14.0356Z" fill="white"/>
<path d="M134.633 3.61646H130.824V28.9317H134.633V3.61646Z" fill="white"/>
<path d="M128.714 28.9317V3.61646H125.095V11.9065H120.821V14.9423H125.095V28.9317H128.714Z" fill="white"/>
<path d="M148.019 3.31714C142.61 3.31714 138.229 6.65257 138.229 10.7652C138.229 14.8778 142.61 18.2132 148.019 18.2132C153.428 18.2132 157.809 14.8778 157.809 10.7652C157.809 6.65257 153.428 3.31714 148.019 3.31714ZM148.019 15.8088C144.773 15.8088 142.145 13.542 142.145 10.7409C142.145 7.93979 144.773 5.67299 148.019 5.67299C151.264 5.67299 153.893 7.93979 153.893 10.7409C153.893 13.542 151.264 15.8088 148.019 15.8088Z" fill="white"/>
<path d="M141.139 22.6008H161.031V28.9236H164.962V20.0669H141.139V22.6008Z" fill="white"/>
<path d="M115.305 20.1074C116.981 22.4795 119.487 24.3091 121.872 25.6044L123.16 23.2162C120.47 21.5646 118.634 19.3059 117.484 16.4805C118.482 14.2623 119.015 11.866 119.015 9.45348V6.33663C119.015 5.11418 118.086 4.11841 116.935 4.11841H108.296V6.65236H114.962V9.45348C114.962 15.5172 111.976 21.3865 106.833 23.5886L107.915 25.6449C110.962 24.4143 113.461 22.4633 115.305 20.0993V20.1074Z" fill="white"/>
<path d="M11.114 31.7652C11.114 31.7652 11.2282 25.6287 10.4816 23.3457C9.71978 21.0627 8.88174 17.3791 3.26689 13.5418C1.30893 12.1979 0.661354 12.3193 0.463272 12.4408C0.257572 12.5622 -0.0471689 13.1208 0.00616071 15.59C0.0671089 18.0673 -0.108117 24.8596 2.62693 27.855C5.36198 30.8504 7.47993 31.5628 11.114 31.7652Z" fill="white"/>
<path d="M15.5479 15.5739C19.9437 8.10154 26.5566 5.47044 27.2804 5.23566C27.9051 5.04137 28.2175 4.82278 28.2708 4.27228C28.3317 3.74605 27.5242 2.61266 25.1929 1.43878C22.0084 -0.172266 15.5479 0.00583943 15.5479 0.00583943C15.5479 0.00583943 9.09497 -0.172266 5.91043 1.43878C3.57916 2.61266 2.76398 3.74605 2.82493 4.27228C2.88588 4.82278 3.183 5.03327 3.81534 5.23566C4.53148 5.47044 11.1596 8.10154 15.5479 15.5739Z" fill="white"/>
<path d="M15.5484 32.0001C16.7064 32.0001 17.7654 31.9434 18.7406 31.8787C18.7406 31.8787 18.8548 26.3574 18.5349 24.3092C18.1844 22.0262 17.4454 18.4236 15.5484 15.6387C13.6666 18.4155 12.92 22.0262 12.5696 24.3092C12.2572 26.3574 12.3715 31.8787 12.3715 31.8787C13.339 31.9515 14.4056 32.0001 15.5484 32.0001Z" fill="white"/>
<path d="M19.9823 31.7652C19.9823 31.7652 19.868 25.6287 20.6222 23.3457C21.3841 21.0627 22.2297 17.3791 27.837 13.5418C29.7949 12.1979 30.4425 12.3193 30.6406 12.4408C30.8463 12.5622 31.151 13.1208 31.0901 15.59C31.0367 18.0673 31.212 24.8596 28.4769 27.855C25.7419 30.8504 23.6239 31.5628 19.9823 31.7652Z" fill="white"/>
<path d="M1.94162 7.07338C1.54546 6.99242 1.27881 6.57145 1.27881 6.11809C1.27881 5.56758 1.69783 5.12231 2.20827 5.12231C2.29207 5.12231 2.45968 5.1466 2.58158 5.21137C2.58158 5.21137 6.79462 7.24339 9.45348 10.9593L9.38491 11.0727C5.83468 8.11772 1.94162 7.07338 1.94162 7.07338Z" fill="white"/>
<path d="M0.996057 9.37253C0.599894 9.26728 0.302772 8.89488 0.287534 8.44152C0.272297 7.89102 0.66846 7.40527 1.18652 7.40527C1.30842 7.40527 1.47602 7.43766 1.60554 7.49433C1.60554 7.49433 5.84905 9.32396 8.50792 12.7727L8.43173 12.8699C4.72151 10.0769 0.996057 9.37253 0.996057 9.37253Z" fill="white"/>
<path d="M0.814067 11.8739C0.425522 11.7768 0.143637 11.4125 0.1284 10.9834C0.105544 10.4491 0.494089 9.97144 1.00453 9.97144C1.035 9.97144 1.20261 9.97144 1.3626 10.0362C1.3626 10.0362 5.45375 11.8092 7.58693 14.5536L7.51836 14.675C3.96052 12.2625 0.814067 11.882 0.814067 11.882V11.8739Z" fill="white"/>
<path d="M29.1547 7.07338C29.5585 6.99242 29.8252 6.57145 29.8252 6.11809C29.8252 5.56758 29.3985 5.12231 28.8805 5.12231C28.8043 5.12231 28.6367 5.1466 28.5072 5.21137C28.5072 5.21137 24.2865 7.24339 21.6353 10.9593L21.7038 11.0727C25.2617 8.11772 29.1471 7.07338 29.1471 7.07338H29.1547Z" fill="white"/>
<path d="M30.1067 9.37253C30.4952 9.26728 30.7924 8.89488 30.8076 8.44152C30.8304 7.89102 30.419 7.40527 29.9086 7.40527C29.7943 7.40527 29.6191 7.43766 29.4896 7.49433C29.4896 7.49433 25.2461 9.32396 22.5796 12.7727L22.6558 12.8699C26.366 10.0769 30.0991 9.36443 30.0991 9.36443L30.1067 9.37253Z" fill="white"/>
<path d="M30.2824 11.8739C30.6634 11.7768 30.9529 11.4125 30.9605 10.9834C30.991 10.4491 30.6024 9.97144 30.0996 9.97144C30.0539 9.97144 29.8939 9.97144 29.7339 10.0362C29.7339 10.0362 25.6351 11.8092 23.502 14.5536L23.5705 14.675C27.1131 12.2625 30.2748 11.882 30.2748 11.882L30.2824 11.8739Z" fill="white"/>
</svg>
