<svg width="324" height="275" viewBox="0 0 324 275" fill="none" xmlns="http://www.w3.org/2000/svg">
<path d="M104.5 29V8.45312H108.758V29H104.5ZM106.629 5.28906C105.952 5.28906 105.372 5.05469 104.891 4.58594C104.409 4.10417 104.168 3.53125 104.168 2.86719C104.168 2.17708 104.409 1.59766 104.891 1.12891C105.372 0.660156 105.952 0.425781 106.629 0.425781C107.319 0.425781 107.898 0.660156 108.367 1.12891C108.849 1.59766 109.09 2.17708 109.09 2.86719C109.09 3.53125 108.849 4.10417 108.367 4.58594C107.898 5.05469 107.319 5.28906 106.629 5.28906ZM115.789 19.3711V15.6992H123.016C124.904 15.6992 126.368 15.2109 127.41 14.2344C128.465 13.2448 128.992 11.8776 128.992 10.1328V10.0938C128.992 8.32292 128.465 6.94922 127.41 5.97266C126.368 4.99609 124.904 4.50781 123.016 4.50781H115.789V0.816406H124.109C125.958 0.816406 127.579 1.20703 128.973 1.98828C130.379 2.75651 131.479 3.83724 132.273 5.23047C133.068 6.61068 133.465 8.21875 133.465 10.0547V10.0938C133.465 11.9297 133.068 13.5508 132.273 14.957C131.479 16.3503 130.379 17.4375 128.973 18.2188C127.579 18.987 125.958 19.3711 124.109 19.3711H115.789ZM113.602 29V0.816406H117.977V29H113.602ZM136.961 29V0.816406H141.199V11.832H141.297C141.831 10.6341 142.638 9.70964 143.719 9.05859C144.812 8.39453 146.128 8.0625 147.664 8.0625C149.135 8.0625 150.411 8.40755 151.492 9.09766C152.586 9.77474 153.432 10.7318 154.031 11.9688C154.643 13.2057 154.949 14.651 154.949 16.3047V29H150.711V17.1055C150.711 15.3997 150.301 14.0716 149.48 13.1211C148.66 12.1706 147.508 11.6953 146.023 11.6953C145.06 11.6953 144.214 11.9232 143.484 12.3789C142.768 12.8346 142.208 13.4661 141.805 14.2734C141.401 15.0807 141.199 16.0247 141.199 17.1055V29H136.961ZM167.879 29.4102C165.913 29.4102 164.194 28.9805 162.723 28.1211C161.264 27.2487 160.132 26.0182 159.324 24.4297C158.517 22.8281 158.113 20.9271 158.113 18.7266V18.6875C158.113 16.5 158.517 14.612 159.324 13.0234C160.145 11.4349 161.284 10.2109 162.742 9.35156C164.214 8.49219 165.919 8.0625 167.859 8.0625C169.812 8.0625 171.518 8.49219 172.977 9.35156C174.448 10.1979 175.587 11.4154 176.395 13.0039C177.215 14.5924 177.625 16.487 177.625 18.6875V18.7266C177.625 20.9401 177.215 22.8411 176.395 24.4297C175.587 26.0182 174.454 27.2487 172.996 28.1211C171.538 28.9805 169.832 29.4102 167.879 29.4102ZM167.898 25.8555C168.992 25.8555 169.943 25.5755 170.75 25.0156C171.557 24.4557 172.182 23.6484 172.625 22.5938C173.068 21.526 173.289 20.237 173.289 18.7266V18.6875C173.289 17.1901 173.068 15.9141 172.625 14.8594C172.182 13.7917 171.551 12.9844 170.73 12.4375C169.91 11.8776 168.953 11.5977 167.859 11.5977C166.779 11.5977 165.828 11.8776 165.008 12.4375C164.201 12.9974 163.569 13.8047 163.113 14.8594C162.658 15.9141 162.43 17.1901 162.43 18.6875V18.7266C162.43 20.237 162.651 21.526 163.094 22.5938C163.549 23.6484 164.188 24.4557 165.008 25.0156C165.828 25.5755 166.792 25.8555 167.898 25.8555ZM180.887 29V8.45312H185.145V11.5586H185.223C185.77 10.5169 186.57 9.67708 187.625 9.03906C188.68 8.38802 189.982 8.0625 191.531 8.0625C193.784 8.0625 195.529 8.74609 196.766 10.1133C198.003 11.4674 198.621 13.3294 198.621 15.6992V29H194.383V16.5195C194.383 14.9701 194.018 13.7786 193.289 12.9453C192.573 12.112 191.486 11.6953 190.027 11.6953C189.038 11.6953 188.172 11.9167 187.43 12.3594C186.701 12.8021 186.134 13.4206 185.73 14.2148C185.34 15.0091 185.145 15.9466 185.145 17.0273V29H180.887ZM211.473 29.4102C209.467 29.4102 207.736 28.9805 206.277 28.1211C204.832 27.2487 203.719 26.0182 202.938 24.4297C202.169 22.8281 201.785 20.9466 201.785 18.7852V18.7656C201.785 16.6302 202.176 14.7617 202.957 13.1602C203.738 11.5456 204.839 10.2956 206.258 9.41016C207.677 8.51172 209.344 8.0625 211.258 8.0625C213.185 8.0625 214.839 8.49219 216.219 9.35156C217.612 10.1979 218.686 11.4023 219.441 12.9648C220.197 14.5143 220.574 16.3177 220.574 18.375V19.8008H203.875V16.8125H218.523L216.434 19.6055V17.9648C216.434 16.5195 216.212 15.3216 215.77 14.3711C215.34 13.4076 214.734 12.6914 213.953 12.2227C213.185 11.7539 212.293 11.5195 211.277 11.5195C210.275 11.5195 209.376 11.7669 208.582 12.2617C207.788 12.7565 207.163 13.4857 206.707 14.4492C206.251 15.3997 206.023 16.5716 206.023 17.9648V19.6055C206.023 20.9336 206.245 22.0729 206.688 23.0234C207.143 23.9609 207.788 24.6836 208.621 25.1914C209.454 25.6862 210.438 25.9336 211.57 25.9336C212.404 25.9336 213.139 25.8099 213.777 25.5625C214.415 25.3021 214.943 24.9635 215.359 24.5469C215.789 24.1172 216.089 23.6419 216.258 23.1211L216.316 22.9648H220.34L220.301 23.1797C220.132 23.987 219.812 24.7617 219.344 25.5039C218.875 26.2461 218.263 26.9167 217.508 27.5156C216.766 28.1016 215.887 28.5638 214.871 28.9023C213.855 29.2409 212.723 29.4102 211.473 29.4102Z" fill="#161516"/>
<path d="M69.4219 271V95.5117H68.543L13.9043 133.012V98.4414L69.1289 59.623H106.482V271H69.4219ZM234.217 274.662C219.568 274.662 206.678 271.977 195.545 266.605C184.412 261.234 175.525 253.959 168.885 244.779C162.342 235.502 158.582 225.053 157.605 213.432L157.459 211.527H192.908L193.055 212.553C194.031 218.412 196.375 223.734 200.086 228.52C203.895 233.305 208.729 237.064 214.588 239.799C220.447 242.533 227.088 243.9 234.51 243.9C242.908 243.9 250.281 242.143 256.629 238.627C263.074 235.014 268.104 230.082 271.717 223.832C275.33 217.484 277.137 210.16 277.137 201.859V201.566C277.137 193.461 275.33 186.332 271.717 180.18C268.104 173.93 263.074 169.047 256.629 165.531C250.281 161.918 242.957 160.111 234.656 160.111C228.699 160.111 223.133 160.99 217.957 162.748C212.781 164.506 208.191 167.094 204.188 170.512C202.234 172.172 200.379 174.027 198.621 176.078C196.863 178.031 195.35 180.18 194.08 182.523H161.268L171.375 59.623H301.16V90.5312H201.551L195.691 154.252H196.424C199.549 149.467 203.455 145.414 208.143 142.094C212.928 138.773 218.348 136.234 224.402 134.477C230.555 132.621 237.146 131.693 244.178 131.693C257.654 131.693 269.617 134.721 280.066 140.775C290.516 146.732 298.719 154.887 304.676 165.238C310.633 175.59 313.611 187.504 313.611 200.98V201.273C313.611 215.727 310.242 228.471 303.504 239.506C296.766 250.541 287.439 259.184 275.525 265.434C263.611 271.586 249.842 274.662 234.217 274.662Z" fill="url(#paint0_linear_17_2215)"/>
<defs>
<linearGradient id="paint0_linear_17_2215" x1="180" y1="186.5" x2="162" y2="176" gradientUnits="userSpaceOnUse">
<stop stop-color="#161516" stop-opacity="0.9"/>
<stop offset="1" stop-color="#434343"/>
</linearGradient>
</defs>
</svg>
