<svg width="24" height="24" viewBox="0 0 24 24" fill="none" xmlns="http://www.w3.org/2000/svg">
<path d="M16.8235 7.9648H15.803C15.6936 7.15378 15.2972 6.4088 14.6858 5.86489C14.0743 5.32099 13.2882 5.01415 12.47 5C11.6518 5.01415 10.8657 5.32099 10.2542 5.86489C9.64275 6.4088 9.2464 7.15378 9.137 7.9648H8.117C7.55579 7.96517 7.01766 8.18822 6.62075 8.58498C6.22384 8.98174 6.00058 9.51979 6 10.081V17.7965C6.0005 18.3576 6.2236 18.8957 6.62035 19.2925C7.01709 19.6893 7.55506 19.9126 8.1162 19.9132H16.8232C17.3844 19.9127 17.9226 19.6896 18.3194 19.2927C18.7163 18.8959 18.9395 18.3577 18.94 17.7965V10.081C18.9394 9.51988 18.7162 8.98191 18.3194 8.58516C17.9226 8.18841 17.3846 7.9653 16.8235 7.9648ZM12.47 6.0996C12.9974 6.11106 13.5051 6.30217 13.9092 6.64132C14.3132 6.98047 14.5895 7.44736 14.6922 7.9648H10.2478C10.3505 7.44736 10.6268 6.98047 11.0308 6.64132C11.4349 6.30217 11.9426 6.11106 12.47 6.0996ZM17.84 17.7965C17.8397 18.0661 17.7325 18.3245 17.542 18.5152C17.3514 18.7059 17.093 18.8132 16.8234 18.8136H8.1165C7.84694 18.8131 7.58856 18.7058 7.39801 18.5152C7.20746 18.3245 7.10029 18.0661 7.1 17.7965V10.081C7.10032 9.81148 7.20753 9.55309 7.39811 9.36251C7.58869 9.17193 7.84708 9.06472 8.1166 9.0644H16.8236C17.0931 9.06477 17.3514 9.172 17.542 9.36258C17.7325 9.55315 17.8397 9.81151 17.84 10.081V17.7965Z" fill="black" fill-opacity="0.8"/>
</svg>
