<svg width="37" height="36" viewBox="0 0 37 36" fill="none" xmlns="http://www.w3.org/2000/svg">
<rect x="0.659912" width="36" height="36" rx="18" fill="#0071E3"/>
<g opacity="0.8">
<path d="M26.1599 16.5H20.2599V10.6C20.2599 9.7 19.5599 9 18.6599 9C17.7599 9 17.1599 9.7 17.1599 10.5V16.4H11.2599C10.3599 16.4 9.65991 17.1 9.65991 18C9.65991 18.9 10.3599 19.5 11.1599 19.5H17.0599V25.4C17.0599 26.3 17.7599 26.9 18.5599 26.9C19.4599 26.9 20.0599 26.2 20.0599 25.4V19.5H25.9599C26.8599 19.5 27.4599 18.8 27.4599 18C27.6599 17.2 26.9599 16.5 26.1599 16.5Z" fill="white"/>
</g>
</svg>
